<?xml version="1.0" encoding="UTF-8" standalone="no"?>
<!DOCTYPE svg PUBLIC "-//W3C//DTD SVG 1.1//EN" "http://www.w3.org/Graphics/SVG/1.1/DTD/svg11.dtd">
<svg width="100%" height="100%" viewBox="0 0 2400 3600" version="1.1" xmlns="http://www.w3.org/2000/svg" xmlns:xlink="http://www.w3.org/1999/xlink" xml:space="preserve" xmlns:serif="http://www.serif.com/" style="fill-rule:evenodd;clip-rule:evenodd;stroke-linejoin:round;stroke-miterlimit:2;">
    <path id="EdgeCuts" d="M573.421,2173.44C573.761,2146.55 578.455,2119.07 588.757,2094.23C600.32,2066.34 632.512,2030.94 642.801,2006.13C650.625,1987.25 645.006,1961.08 650.49,1945.32C655.104,1932.06 675.71,1922.47 675.704,1911.59C675.543,1642.89 670.307,292.658 676.12,288.178C676.12,288.178 681.739,295.737 694.108,308.157C701.837,315.918 713.652,325.06 723.96,338.494C888.638,553.119 1481.54,1327.71 1628.66,1505.67C1633.19,1511.15 1642.04,1523.78 1642.04,1523.78C1642.04,1523.78 1686.18,1525.6 1702.35,1524.91C1721.57,1524.09 1741.96,1525.93 1758.49,1517.38C1777.69,1507.45 1812.6,1492.1 1832.79,1486.02C1837.84,1484.5 1856.21,1485.31 1860.48,1484.69C1872.23,1482.97 1884.11,1478.81 1891.83,1480.37C1899.77,1481.98 1907.36,1490.61 1917.48,1495.96C1930.89,1503.05 1946.88,1519.02 1956,1535.98C1964.48,1551.76 1969.07,1569.81 1976.48,1583.8C1992.85,1614.72 2010.3,1645.43 2015.49,1673.58C2018.35,1689.06 2019.85,1709.92 2017.24,1720.28C2015.96,1725.41 2010.78,1730.09 2009.62,1735.02C2006.98,1746.25 2007.72,1744.29 2009.76,1755.36C2010.84,1761.23 2017.42,1760.5 2020.33,1768.68C2024.11,1779.28 2031.49,1792.43 2035.31,1806.68C2041.03,1827.98 2043.17,1837.62 2045.11,1855.74C2045.7,1861.2 2051.01,1873.76 2051.24,1879.72C2051.75,1893.23 2053.13,1912.41 2051.31,1926.21C2049.55,1939.45 2048.67,1958.31 2045.36,1970.11C2042.58,1980.04 2039.36,2001.07 2037.26,2012.13C2033.93,2029.59 2031.94,2048.49 2026.97,2063.13C2023.34,2073.8 2019.44,2080.41 2016.19,2090.33C2013.36,2098.95 2009.34,2114.4 2002.7,2123.77C1978.77,2157.52 1918.7,2195.18 1897.32,2219.35C1885.27,2232.95 1876.99,2250.81 1874.37,2268.79C1869.95,2299.11 1868.92,2354.59 1860.58,2409.46C1856.21,2438.17 1854.69,2474.22 1849.61,2506.28C1825.95,2655.55 1818.36,2851.87 1801.11,2959.54C1792.4,3013.91 1789.04,3087.91 1781.92,3156.89C1770.54,3267.14 1756.73,3366.36 1750.33,3365.78C1748.83,3373.54 1719.7,3382.96 1683.91,3381.26C1646.97,3379.51 1602.66,3366.39 1556.49,3356.86C1412.32,3327.1 1123.66,3196.88 976.644,3116.22C910.743,3080.06 836.458,3045.88 773.02,3007.43C685.1,2954.14 579.152,2881.24 533.415,2839.45C500.273,2809.17 465.201,2765.68 465.201,2765.68C465.201,2765.68 502.909,2671.13 523.256,2632.11C541.627,2596.88 576.689,2568.55 587.285,2531.58C597.881,2494.6 586.929,2450.7 586.832,2410.25C586.725,2365.27 588.874,2301.14 586.639,2261.67C584.957,2231.98 573.068,2201.35 573.421,2173.44Z" style="fill:rgb(153,120,102);"/>
    <path id="FCu" d="M1443.28,3302.81C1443.28,3302.81 1477.14,3237.9 1490.3,3203.83C1508.78,3155.99 1530.3,3074.82 1554.17,3015.74C1577.18,2958.78 1607.82,2892.11 1633.49,2849.39C1653.57,2815.98 1683.21,2779.89 1708.19,2759.41C1729.36,2742.06 1734.76,2737.18 1752.99,2731.69C1763.88,2728.41 1814.16,2730.17 1814.16,2730.17C1814.16,2730.17 1819.13,2665.67 1822.39,2613.84C1824.83,2575.06 1828.59,2545.05 1829.59,2530.35C1829.97,2524.82 1829.9,2521.69 1829.9,2521.69C1829.9,2521.69 1829.18,2520.81 1827.81,2521.03C1798.06,2525.85 1728.6,2541.16 1683.97,2550.73C1639.76,2560.21 1588.03,2575.98 1551.61,2580.48C1523.11,2584 1486.1,2583.99 1465.49,2577.7C1449.13,2572.72 1428.79,2554.23 1427.92,2542.76C1427.05,2531.28 1448.19,2518.75 1460.29,2508.85C1479.14,2493.43 1514.41,2470.14 1541.05,2450.22C1596.25,2408.92 1735.43,2304.59 1791.51,2261.1C1821.02,2238.22 1848.2,2212.45 1877.52,2189.31C1907.46,2165.68 1948.35,2150.5 1971.16,2119.31C1993.96,2088.12 2005.52,2038.12 2014.35,2002.19C2022.22,1970.16 2026.17,1933.63 2024.12,1903.73C2022.2,1875.82 2008.39,1837 2002.03,1822.77C1999.76,1817.69 1990.73,1815.49 1985.97,1818.34C1980.39,1821.67 1974.47,1834.68 1968.59,1842.76C1952.59,1864.76 1908.44,1925.03 1889.98,1950.32C1879.23,1965.04 1866.25,1981.26 1857.81,1994.53C1850.66,2005.75 1846.37,2018.62 1839.33,2029.92C1828.09,2047.94 1803.97,2083.79 1790.35,2102.67C1780.18,2116.76 1764.67,2136.32 1757.58,2143.2C1755.23,2145.48 1749.3,2145.91 1747.81,2143.95C1746.32,2141.99 1747.43,2135.45 1748.61,2131.44C1750.35,2125.51 1754.68,2115.89 1758.24,2108.36C1763.62,2096.95 1772.89,2077.9 1780.92,2063.04C1790.56,2045.2 1805.26,2019.53 1816.08,2001.33C1825.62,1985.27 1836.43,1968.96 1845.84,1953.84C1854.79,1939.46 1865.85,1926.16 1872.53,1910.6C1879.93,1893.39 1883.61,1870.34 1890.24,1850.54C1898.32,1826.37 1910.05,1782.67 1921.06,1765.59C1928.16,1754.57 1945.16,1750.56 1956.29,1748.09C1966.59,1745.8 1982.01,1757.66 1987.82,1750.79C1993.64,1743.92 1993.46,1721.37 1991.17,1706.87C1988.29,1688.54 1978.14,1648.72 1970.49,1640.78C1963.26,1633.28 1953.18,1652.47 1945.26,1659.24C1931.26,1671.2 1901.41,1668.58 1886.49,1658.1C1871.57,1656.75 1861.55,1615.55 1840.21,1613.43C1818.63,1611.29 1779.81,1644.1 1757,1645.22C1737.3,1646.19 1712.03,1631.63 1703.4,1620.16C1694.78,1608.69 1700.41,1589.92 1705.25,1576.39C1710.1,1562.86 1732.44,1538.97 1732.44,1538.97C1732.44,1538.97 1692.12,1539.34 1676.92,1539.05C1665.01,1538.81 1649.03,1537.53 1641.22,1537.18C1637.51,1537.01 1632,1536.26 1630.08,1536.93C1628.73,1537.41 1631.17,1541.1 1629.74,1541.23C1625.98,1541.58 1614.94,1539.74 1607.54,1539.01C1599.02,1538.17 1588.3,1535.85 1578.63,1536.2C1567.06,1536.63 1551.65,1540.06 1538.11,1541.55C1394.31,1557.31 1071.02,1686.87 935.411,1765.82C799.186,1845.12 712.976,1906.87 666.313,1945.32C652.855,1956.41 655.436,1996.49 655.436,1996.49C655.436,1996.49 677.801,1975.38 690.26,1966.45C785.773,1898.01 888.883,1886.88 907.02,1889.16C790.322,1912.15 713.263,1963.17 652.099,2020.51C619.889,2051.57 600.188,2101.86 591.868,2141.75C588.012,2160.24 591.225,2195.72 598.192,2220.11C605.158,2244.5 617.152,2268.58 633.667,2288.09C654.735,2312.97 691.954,2348.23 724.603,2369.43C756.621,2390.21 805.959,2406.36 829.557,2415.24C841.221,2419.64 860.07,2419.93 866.187,2422.75C869.033,2424.06 868.109,2430.35 866.259,2432.15C864.409,2433.95 858.825,2433.89 855.088,2433.55C849.446,2433.03 839.731,2431.46 832.408,2429.06C813.861,2422.97 771.408,2410.52 743.806,2397.03C716.489,2383.69 687.489,2364.55 666.798,2348.16C648.942,2334.02 630.63,2312.04 619.658,2298.68C612.065,2289.45 602.384,2256.18 600.968,2268.06C598.295,2290.48 602.61,2393.94 603.621,2433.23C604.226,2456.78 605.68,2490.09 607.028,2503.82C607.443,2508.04 613.006,2511.61 611.711,2515.64C607.812,2527.8 595.022,2557.43 583.632,2576.72C570.465,2599.03 546.096,2628.12 532.709,2649.5C521.601,2667.24 511.059,2685.53 503.312,2704.98C495.298,2725.09 486.471,2759.07 484.625,2770.18C484.201,2772.72 490.342,2769.87 492.232,2771.63C500.448,2779.27 518.425,2802.9 533.917,2816.02C560.83,2838.8 612.143,2879.8 653.707,2908.32C702.049,2941.49 768.203,2982.3 823.967,3015.05C877.79,3046.67 932.622,3076.63 988.294,3104.87C1053.51,3137.94 1150.42,3184.3 1215.27,3213.51C1268.54,3237.52 1339.39,3265.3 1377.39,3280.18C1399.02,3288.64 1443.28,3302.81 1443.28,3302.81ZM1261.25,3177.94C1257.56,3175.14 1259.76,3167.52 1260.72,3162.44C1262.06,3155.27 1266.27,3143.68 1269.32,3134.94C1272.27,3126.52 1275.57,3118.22 1279.06,3110.01C1283.57,3099.4 1291.98,3080.47 1296.38,3071.31C1299.06,3065.71 1302.83,3057.9 1305.44,3055.02C1306.93,3053.37 1309.83,3054.23 1312.04,3054.04C1315.7,3053.72 1323.91,3052.53 1327.39,3053.13C1329.73,3053.54 1332,3055.46 1332.92,3057.66C1333.87,3059.94 1333.27,3063.79 1333.12,3066.85C1332.87,3071.95 1332.88,3081.25 1331.38,3088.24C1329.77,3095.76 1326.57,3104.5 1323.43,3111.96C1320.36,3119.24 1315.45,3128.34 1312.52,3133.01C1310.81,3135.74 1307.88,3137.6 1305.83,3140C1303.82,3142.37 1301.81,3144.76 1300.25,3147.44C1298.03,3151.29 1294.85,3158.01 1292.47,3163.08C1290.18,3167.97 1287.57,3175.21 1285.96,3177.9C1285.38,3178.87 1283.97,3179.23 1282.84,3179.23C1278.72,3179.24 1264.93,3180.74 1261.25,3177.94ZM1409.99,3025.73C1408.9,3022.72 1409.12,3013.65 1410.32,3008.08C1411.53,3002.51 1414.89,2997.54 1417.22,2992.29C1420.16,2985.66 1424.57,2976.19 1427.97,2968.29C1431.31,2960.54 1435.04,2950.43 1437.62,2944.88C1439.23,2941.41 1441.77,2937.06 1443.42,2934.98C1444.42,2933.72 1446.47,2933.64 1447.51,2932.4C1448.96,2930.68 1450.28,2927.04 1452.12,2924.67C1454.31,2921.86 1457.24,2917.28 1460.65,2915.55C1464.06,2913.81 1469.04,2914.33 1472.57,2914.26C1475.67,2914.19 1479.86,2913.62 1481.83,2915.09C1483.8,2916.55 1484.2,2920.25 1484.4,2923.03C1484.61,2925.93 1483.71,2929.38 1483.06,2932.51C1482.27,2936.3 1481.58,2941.62 1479.66,2945.76C1477.14,2951.22 1471.6,2958.63 1467.91,2965.27C1464.08,2972.18 1460.17,2980.07 1456.67,2987.18C1453.3,2994.02 1449.26,3002.55 1446.93,3007.9C1445.31,3011.62 1444.36,3016.93 1442.7,3019.31C1441.49,3021.06 1438.55,3020.73 1436.99,3022.18C1435.31,3023.74 1434.35,3027.38 1432.64,3028.64C1431.03,3029.84 1428.73,3029.68 1426.72,3029.78C1424.53,3029.9 1421.11,3029.95 1419.47,3029.34C1418.18,3028.87 1418.16,3026.63 1416.88,3026.14C1415.3,3025.54 1410.77,3027.89 1409.99,3025.73ZM1370.07,2865.45C1369.51,2861.66 1370.44,2853.06 1371.93,2847.1C1373.48,2840.89 1376.79,2834.45 1379.37,2828.19C1382.15,2821.43 1385.21,2813.62 1388.61,2806.56C1392.04,2799.44 1396.05,2792.44 1399.91,2785.46C1403.84,2778.36 1408.83,2769.45 1412.18,2763.94C1414.61,2759.96 1418.04,2754.7 1420.05,2752.38C1421.09,2751.17 1422.67,2750.38 1424.23,2750.04C1427.2,2749.39 1434.36,2748.29 1437.9,2748.46C1440.57,2748.59 1443.99,2749.32 1445.48,2751.09C1446.96,2752.85 1447.13,2756.37 1446.82,2759.03C1446.46,2762.06 1444.48,2765.85 1443.34,2769.26C1441.83,2773.79 1439.82,2780.65 1437.74,2786.23C1435.56,2792.04 1432.93,2798.22 1430.31,2804.12C1427.49,2810.46 1423.89,2817.95 1420.82,2824.28C1417.92,2830.27 1414.66,2836.55 1411.9,2842.13C1409.33,2847.32 1406.95,2853.45 1404.25,2857.74C1401.88,2861.48 1398.82,2865.89 1395.67,2867.88C1392.71,2869.75 1388.72,2869.37 1385.32,2869.69C1381.99,2870.01 1377.82,2870.51 1375.27,2869.8C1373.09,2869.2 1370.4,2867.68 1370.07,2865.45ZM648.512,2099.16C639.986,2118.86 630.719,2140.24 628.341,2161.98C626.998,2174.26 625.746,2189.84 627.136,2202.79C628.427,2214.82 631.42,2224.71 635.733,2236.24C644.28,2259.09 655.689,2281.73 671.803,2300.25C691.473,2322.86 716.496,2341.78 741.591,2357.89C765.621,2373.31 789.788,2383.11 817.6,2389.45C831.771,2392.69 845.973,2395.9 860.347,2398.06C860.961,2398.15 869.996,2397.87 872.152,2395.78C872.501,2395.44 872.314,2394.52 871.861,2394.34C861.442,2390.22 850.734,2386.88 840.174,2383.13C803.93,2370.29 791.38,2367.46 757.451,2348.75C717.811,2326.89 683.638,2293.18 663.095,2252.76C653.408,2233.69 648.403,2210.33 646.006,2189.43C643.693,2169.26 649.669,2151.01 657.448,2132.74C681.547,2076.15 729.643,2032.84 785.031,2007.39C809.585,1996.12 842.443,1984.52 868.436,1977.18C871.17,1976.41 889.998,1971.61 903.458,1970.27C906.539,1969.97 910.089,1960.35 906.416,1958.55C901.083,1955.93 889.108,1957.59 885.275,1958.34C858.664,1963.57 850.115,1964.38 821.727,1973.3C801.369,1979.7 779.527,1987.43 760.32,1997.6C716.684,2020.7 677.749,2059.76 648.512,2099.16ZM835.127,2358.39C853.547,2347.36 863.343,2333.41 878.764,2318.47C894.529,2303.19 905.341,2283.52 918.657,2266.07C924.9,2257.89 930.137,2248.82 937.439,2241.56C974.281,2204.95 953.892,2182.26 954.473,2067.43C954.547,2052.77 946.493,2009.72 920.609,2003.12C902.132,1998.41 840.631,1999.24 817.781,2013.95C813.221,2016.89 822.357,2025.29 818.984,2029.54C812.37,2037.87 798.563,2035.72 791.351,2043.54C789.519,2045.52 788.083,2050.65 786.013,2052.39C780.257,2057.22 760.288,2058.24 761.081,2065.7C762.167,2075.91 790.1,2078.77 806.012,2078.54C825.934,2078.25 850.489,2081.66 850.489,2081.66C850.489,2081.66 819.491,2098.93 807.057,2108.67C795.436,2117.78 780.166,2126.5 766.935,2138.83C757.67,2147.47 745.948,2157.43 744.136,2167.98C743.047,2174.32 748.19,2172.78 750.892,2180.5C753.874,2189.02 754.583,2192.65 757.632,2192.9C763.158,2193.35 772.317,2188.7 779.406,2187.66C785.038,2186.84 799.042,2186.27 799.042,2186.27C799.042,2186.27 760.56,2229.22 741.571,2254.89C739.601,2257.55 737.581,2263.36 740.574,2264.78C765.079,2276.4 822.978,2230.9 823.832,2230.5C828.174,2228.47 835.747,2231.3 833.509,2235.55C817.845,2265.23 791.383,2276.6 782.556,2297.98C779.902,2304.41 789.913,2310.16 796.852,2309.7C808.457,2308.93 816.54,2297.73 825.502,2313.3C828.407,2318.35 820.131,2324.96 818.49,2330.55C816.515,2337.27 812.885,2351.28 814.893,2358C815.77,2360.93 832.162,2359.14 835.127,2358.39ZM1328.36,2001.57C1339.66,2001.06 1362.27,2000.04 1373.64,1996.47C1382.59,1993.67 1388.71,1985.29 1396.58,1980.18C1405.21,1974.58 1417.03,1970.31 1425.41,1962.86C1434.56,1954.72 1444.62,1938.96 1451.51,1931.34C1456.16,1926.19 1463.85,1921.21 1466.73,1917.13C1468.74,1914.29 1465.37,1906.36 1468.8,1906.89C1472.24,1907.41 1481.26,1917.84 1487.35,1920.28C1492.92,1922.53 1503.86,1926.73 1505.33,1921.57C1506.8,1916.42 1501.57,1899.13 1496.18,1889.34C1489.5,1877.21 1476.07,1860.74 1465.25,1848.77C1454.93,1837.36 1444.01,1826.16 1431.26,1817.55C1416.11,1807.32 1388.01,1793.56 1374.35,1787.37C1366.46,1783.79 1357.95,1781.11 1349.31,1780.39C1337,1779.36 1315.4,1778.25 1300.45,1781.21C1286,1784.07 1272.22,1790.52 1259.61,1798.15C1244.49,1807.29 1222.95,1822.88 1209.74,1836.07C1197.8,1847.99 1188.81,1863.58 1180.36,1877.29C1172.27,1890.43 1156.73,1906.81 1159.04,1918.38C1161.35,1929.94 1182.26,1937.55 1194.22,1946.68C1207.49,1956.81 1224.36,1969.61 1238.7,1979.19C1252.13,1988.16 1270.87,1998.82 1280.24,2004.14L1328.36,2001.57ZM1508.85,1951.95C1510.89,1953.6 1516.8,1952.98 1519.59,1951.36C1522.37,1949.75 1524.55,1945.74 1525.56,1942.25C1526.59,1938.66 1526.55,1932.85 1525.8,1929.81C1525.19,1927.38 1523.23,1924.97 1521.02,1924.02C1518.8,1923.08 1514.38,1923.2 1512.51,1924.13C1510.68,1925.05 1510.36,1927.66 1509.77,1929.62C1508.91,1932.51 1507.5,1937.74 1507.35,1941.46C1507.2,1944.99 1506.81,1950.3 1508.85,1951.95ZM1591.73,1944.16C1593.5,1946.79 1599.43,1943.57 1602.59,1941.61C1605.94,1939.52 1609.57,1934.79 1611.86,1931.64C1613.81,1928.97 1616.31,1925.08 1616.31,1922.76C1616.31,1920.53 1613.31,1919.39 1611.85,1917.77C1610.42,1916.2 1609.62,1913.5 1607.53,1913.08C1604.82,1912.54 1598.14,1912.38 1595.55,1914.52C1592.95,1916.65 1592.46,1921.93 1591.95,1925.87C1591.31,1930.81 1589.95,1941.54 1591.73,1944.16ZM1659.01,1937.73C1662.25,1939.97 1675.87,1941.5 1679.43,1937.74C1682.99,1933.97 1682.26,1919.01 1680.38,1915.16C1678.59,1911.49 1671.52,1913.09 1668.13,1914.62C1664.73,1916.14 1661.54,1920.45 1660.02,1924.3C1658.5,1928.16 1655.78,1935.5 1659.01,1937.73ZM1621.21,1525.88C1621.21,1525.88 1599.71,1521.21 1574,1521.88C1553.18,1522.43 1529.62,1526.13 1513.76,1528.76C1471.13,1535.81 1414.06,1550.62 1365.6,1566.38C1303.22,1586.66 1213.35,1618.68 1139.48,1650.49C1060.63,1684.44 968.423,1727.29 892.484,1770.11C867.954,1783.95 821.182,1809.6 789.829,1830.26C728.488,1870.68 683.846,1907.43 683.846,1907.43C683.846,1907.43 684.403,1749.97 683.493,1534.39C681.512,1064.81 677.638,318.405 681.622,315.334L1621.21,1525.88ZM1757.21,1868.5C1755.72,1867.52 1757.54,1863.87 1756.49,1862.47C1755.44,1861.07 1751.71,1861.93 1750.89,1860.08C1749.97,1857.98 1750.37,1852.65 1750.95,1849.89C1751.45,1847.52 1752.57,1844.69 1754.41,1843.52C1756.26,1842.34 1759.87,1842.45 1762.02,1842.82C1764,1843.15 1766.08,1844.12 1767.3,1845.71C1768.73,1847.57 1769.97,1851.07 1770.59,1853.97C1771.22,1856.96 1771.11,1861.49 1771.13,1863.66C1771.13,1864.78 1771.53,1866.28 1770.66,1866.99C1769.71,1867.78 1767.22,1868.14 1765.43,1868.34C1763.19,1868.59 1758.7,1869.47 1757.21,1868.5ZM1667.02,1867.64C1665.03,1865.92 1663.8,1861.5 1663.33,1858.14C1662.84,1854.67 1662.92,1849.76 1664.08,1846.83C1665.15,1844.11 1667.7,1841.41 1670.25,1840.58C1672.8,1839.74 1677.58,1840.16 1679.39,1841.81C1681.2,1843.47 1680.62,1848.34 1681.11,1850.5C1681.44,1851.95 1681.63,1853.97 1682.32,1854.79C1682.97,1855.56 1684.98,1854.46 1685.28,1855.42C1685.75,1857 1685.78,1862.29 1685.19,1864.26C1684.75,1865.71 1683.14,1866.64 1681.75,1867.22C1680.09,1867.92 1677.45,1868.38 1675.24,1868.44C1672.79,1868.51 1669,1869.36 1667.02,1867.64ZM1596.22,1864.2C1594.91,1862.09 1594.01,1856.03 1593.83,1852.47C1593.67,1849.22 1593.51,1844.85 1595.16,1842.81C1596.8,1840.76 1601.53,1840.44 1603.69,1840.2C1605.21,1840.03 1607.14,1840.22 1608.12,1841.38C1609.23,1842.69 1609.78,1846.12 1610.32,1848.06C1610.78,1849.68 1610.21,1852.17 1611.39,1852.99C1612.56,1853.81 1615.83,1852.6 1617.37,1852.97C1618.64,1853.28 1620.37,1853.94 1620.59,1855.23C1620.84,1856.77 1620.38,1860.51 1618.89,1862.17C1617.41,1863.83 1614.23,1864.75 1611.66,1865.18C1608.78,1865.68 1604.22,1865.28 1601.64,1865.12C1599.81,1865 1597.18,1865.76 1596.22,1864.2ZM1648.98,1794.54C1649.13,1791.15 1649.61,1784.8 1650.47,1782.29C1650.97,1780.83 1652.65,1779.9 1654.14,1779.48C1655.82,1779.02 1658.86,1779.01 1660.53,1779.48C1662.01,1779.9 1663,1781.37 1664.16,1782.32C1665.3,1783.24 1666.14,1784.65 1667.5,1785.17C1669.05,1785.76 1671.88,1785.38 1673.44,1785.87C1674.74,1786.28 1675.55,1787.69 1676.83,1788.14C1678.12,1788.58 1680.51,1787.69 1681.14,1788.55C1681.76,1789.41 1681.39,1791.94 1680.58,1793.32C1679.67,1794.88 1677.29,1797.09 1675.67,1797.9C1674.26,1798.61 1672.12,1797.14 1670.92,1798.18C1669.37,1799.5 1669.01,1804.49 1666.38,1805.83C1663.76,1807.17 1657.97,1806.77 1655.16,1806.23C1652.98,1805.81 1650.59,1804.54 1649.56,1802.59C1648.53,1800.64 1648.86,1797.23 1648.98,1794.54ZM1748.07,1796.4C1746.28,1795.31 1746.01,1792.12 1745.93,1790.49C1745.86,1789.1 1747.24,1787.82 1747.58,1786.65C1747.87,1785.63 1747.35,1784.37 1747.95,1783.49C1748.72,1782.36 1750.51,1780.58 1752.23,1779.84C1754.15,1779.02 1757,1778.64 1759.44,1778.58C1761.91,1778.52 1766.04,1777.78 1767.08,1779.49C1768.12,1781.2 1766.07,1786.12 1765.67,1788.82C1765.33,1791.13 1765.68,1794.09 1764.66,1795.74C1763.65,1797.4 1761.54,1798.67 1759.56,1798.75C1756.8,1798.86 1750.34,1797.78 1748.07,1796.4ZM1826.12,1794.26C1824.99,1793.6 1824.44,1792.12 1824.2,1790.83C1823.88,1789.11 1823.67,1785.69 1824.21,1783.97C1824.69,1782.46 1826.1,1781.31 1827.46,1780.49C1828.82,1779.68 1830.7,1779.29 1832.39,1779.06C1834.18,1778.82 1836.76,1778.42 1838.19,1779.03C1839.62,1779.64 1840.46,1781.29 1841.01,1782.74C1841.68,1784.52 1842.31,1787.61 1842.22,1789.69C1842.13,1791.63 1842.21,1794.42 1840.45,1795.24C1838.61,1796.1 1833.54,1795.03 1831.15,1794.87C1829.46,1794.75 1827.28,1794.93 1826.12,1794.26Z" style="fill:rgb(242,13,13);"/>
    <path id="FMask" d="M1644.91,2195.45C1644.98,2194.76 1645.04,2194.08 1645.09,2193.41C1647,2172.15 1650.86,2151.09 1653.07,2129.85C1655.57,2105.72 1657.74,2073.19 1660.13,2048.6C1662.28,2026.49 1665.24,1995.55 1667.39,1982.34C1668.15,1977.67 1670.44,1971.54 1673.01,1969.31C1675.48,1967.18 1681.48,1966 1682.79,1968.99C1684.27,1972.37 1682.5,1982.75 1681.9,1989.6C1680.65,2003.99 1677.23,2033.41 1675.29,2055.36C1672.93,2081.88 1670.41,2119.57 1667.8,2148.68C1665.36,2175.84 1662.04,2202.91 1659.6,2230.06C1656.53,2264.3 1652.33,2315.22 1649.34,2354.14L1649.06,2357.84L1648.78,2361.59L1648.42,2366.39L1648.16,2369.87C1702.43,2329.04 1760.05,2285.5 1791.51,2261.1C1821.02,2238.22 1848.2,2212.45 1877.52,2189.31C1907.46,2165.68 1948.35,2150.5 1971.16,2119.31C1993.96,2088.12 2005.52,2038.12 2014.35,2002.19C2022.22,1970.16 2026.17,1933.63 2024.12,1903.73C2022.2,1875.82 2008.39,1837 2002.03,1822.77C1999.76,1817.69 1990.73,1815.49 1985.97,1818.34C1980.39,1821.67 1974.47,1834.68 1968.59,1842.76C1952.59,1864.76 1908.44,1925.03 1889.98,1950.32C1879.23,1965.04 1866.25,1981.26 1857.81,1994.53C1850.66,2005.75 1846.37,2018.62 1839.33,2029.92C1828.09,2047.94 1803.97,2083.79 1790.35,2102.67C1780.18,2116.76 1764.67,2136.32 1757.58,2143.2C1755.23,2145.48 1749.3,2145.91 1747.81,2143.95C1746.32,2141.99 1747.43,2135.45 1748.61,2131.44C1750.35,2125.51 1754.68,2115.89 1758.24,2108.36C1763.62,2096.95 1772.89,2077.9 1780.92,2063.04C1790.56,2045.2 1805.26,2019.53 1816.08,2001.33C1825.62,1985.27 1836.43,1968.96 1845.84,1953.84C1854.79,1939.46 1865.85,1926.16 1872.53,1910.6C1879.93,1893.39 1883.61,1870.34 1890.24,1850.54C1898.32,1826.37 1910.05,1782.67 1921.06,1765.59C1928.16,1754.57 1945.16,1750.56 1956.29,1748.09C1966.59,1745.8 1982.01,1757.66 1987.82,1750.79C1993.64,1743.92 1993.46,1721.37 1991.17,1706.87C1988.29,1688.54 1978.14,1648.72 1970.49,1640.78C1963.26,1633.28 1953.18,1652.47 1945.26,1659.24C1931.26,1671.2 1901.41,1668.58 1886.49,1658.1C1871.57,1656.75 1861.55,1615.55 1840.21,1613.43C1818.63,1611.29 1779.81,1644.1 1757,1645.22C1737.3,1646.19 1712.03,1631.63 1703.4,1620.16C1694.78,1608.69 1700.41,1589.92 1705.25,1576.39C1710.1,1562.86 1732.44,1538.97 1732.44,1538.97C1732.44,1538.97 1692.12,1539.34 1676.92,1539.05C1665.01,1538.81 1649,1536.91 1641.22,1537.18C1637.38,1537.31 1635.99,1540.17 1630.24,1540.65C1622.41,1541.32 1611.8,1539.43 1607.54,1539.01C1599.02,1538.17 1588.3,1535.85 1578.63,1536.2C1567.06,1536.63 1551.65,1540.06 1538.11,1541.55C1394.31,1557.31 1071.02,1686.87 935.411,1765.82C799.186,1845.12 712.976,1906.87 666.313,1945.32C652.855,1956.41 655.436,1996.49 655.436,1996.49C655.436,1996.49 677.801,1975.38 690.26,1966.45C785.773,1898.01 888.883,1886.88 907.02,1889.16C858.649,1898.69 817.088,1913.03 780.637,1930.65C792.564,1925.82 805.302,1922.02 815.095,1918.51C825.905,1914.64 836.733,1910.74 847.819,1907.74C860.584,1904.29 883.573,1899.76 891.683,1897.82C893.335,1897.42 895.276,1896.42 896.478,1896.09C897.259,1895.88 898.285,1895.86 898.894,1895.86C899.314,1895.86 900.13,1895.82 900.136,1896.08C900.141,1896.34 899.354,1897.01 898.927,1897.43C898.113,1898.25 896.682,1900.06 895.25,1900.97C893.636,1902.01 891.198,1902.65 889.245,1903.64C887.241,1904.65 884.941,1906.01 883.228,1907.07C881.763,1907.97 878.968,1909.99 878.968,1909.99C878.968,1909.99 882.451,1909.38 884.21,1909.23C886.962,1909 892.875,1908.66 895.481,1908.6C896.938,1908.57 898.525,1908.64 899.844,1908.9C901.077,1909.15 902.583,1909.22 903.393,1910.18C904.229,1911.17 904.711,1913.33 904.856,1914.85C904.998,1916.35 904.734,1918.17 904.263,1919.33C903.845,1920.36 903.071,1921.41 902.032,1921.8C899.982,1922.57 895.357,1923.47 891.96,1923.96C885.782,1924.86 873.888,1925.6 864.97,1927.2C855.82,1928.85 846.244,1931.15 837.062,1933.82C824.807,1937.37 806.214,1942.42 791.443,1948.51C774.714,1955.4 751.731,1966.21 736.693,1975.16C723.912,1982.77 712.316,1992.33 701.211,2002.22C689.403,2012.74 675.37,2026.93 665.845,2038.29C657.54,2048.19 650.614,2059.22 644.061,2070.36C637.465,2081.57 630.653,2094.84 626.267,2105.56C622.436,2114.93 619.958,2125.13 617.744,2134.69C615.59,2144 613.583,2153.42 612.983,2162.96C612.316,2173.54 612.234,2186.55 613.745,2198.2C615.275,2210 618.24,2222.22 622.165,2233.76C626.721,2247.14 634.113,2265.94 641.082,2278.52C647.269,2289.69 656.149,2299.6 663.976,2309.23C671.592,2318.6 678.891,2328.43 688.046,2336.3C699.451,2346.11 717.54,2359.02 732.406,2368.07C746.691,2376.77 761.953,2384.49 777.238,2390.59C792.391,2396.64 810.462,2401.12 824.112,2404.7C835.653,2407.73 852.431,2410.72 859.136,2412.09C860.856,2412.44 863.192,2412.72 864.342,2412.87C864.906,2412.95 865.761,2412.65 866.041,2413.04C866.32,2413.43 866.019,2414.49 866.019,2415.21C866.02,2416.74 866.405,2421.07 866.044,2422.2C865.971,2422.43 865.788,2422.5 865.551,2422.48C865.776,2422.57 865.988,2422.66 866.187,2422.75C869.033,2424.06 868.109,2430.35 866.259,2432.15C864.981,2433.39 861.92,2433.75 858.917,2433.74C859.272,2433.82 859.621,2433.91 859.964,2434C870.345,2436.6 884.682,2438.32 891.167,2441.55C895.385,2443.65 897.794,2448.82 898.875,2453.4C900.377,2459.77 902.371,2474.04 900.175,2479.75C898.2,2484.88 891.15,2486.95 885.696,2487.63C874.376,2489.03 848.082,2488.06 832.255,2488.16C818.415,2488.25 804.575,2488.23 790.735,2488.25C776.707,2488.27 761.91,2491.61 748.089,2488.29C734.234,2484.96 720.459,2476.1 707.604,2468.26C692.918,2459.3 659.974,2434.56 659.974,2434.56C659.974,2434.56 656.401,2453.76 655.78,2463.48C655.056,2474.83 654.497,2489.78 655.627,2502.66C656.755,2515.52 660.988,2527.94 662.559,2540.75C665.347,2563.49 666.567,2606.67 672.36,2639.11C679.405,2678.55 689.763,2733.01 704.829,2777.41C719.886,2821.79 741.12,2865.19 762.751,2905.53C783.968,2945.09 834.617,3019.43 834.617,3019.43C834.617,3019.43 807.247,3005.1 794.009,2997.16C778.467,2987.83 757.393,2973.75 741.363,2963.47C726.839,2954.16 712.217,2945 697.827,2935.48C681.772,2924.86 662.369,2912.04 645.034,2899.75C624.757,2885.38 594.931,2863.51 576.164,2849.24C561.285,2837.93 546.098,2826.9 532.43,2814.15C518.729,2801.37 501.696,2780.37 493.96,2772.57C491.73,2770.32 485.959,2770.53 486.013,2767.37C486.053,2765.04 486.558,2761.55 487.354,2757.48C486.062,2762.83 485.106,2767.28 484.625,2770.18C484.201,2772.72 490.342,2769.87 492.232,2771.63C500.448,2779.27 518.425,2802.9 533.917,2816.02C560.83,2838.8 612.143,2879.8 653.707,2908.32C702.049,2941.49 768.203,2982.3 823.967,3015.05C877.79,3046.67 932.622,3076.63 988.294,3104.87C1053.51,3137.94 1150.42,3184.3 1215.27,3213.51C1268.54,3237.52 1339.39,3265.3 1377.39,3280.18C1399.02,3288.64 1443.28,3302.81 1443.28,3302.81C1443.28,3302.81 1461.85,3267.21 1476.83,3234.9C1474.68,3240.77 1472.56,3246.29 1470.48,3251.29C1462.97,3269.33 1443.47,3303.31 1443.47,3303.31C1443.47,3303.31 1505.43,3329.58 1538.41,3333.32C1581.84,3338.25 1672.39,3378.26 1727.23,3357.23C1734.97,3354.27 1736.68,3355.79 1743.11,3350.49C1746.44,3347.75 1747.42,3331.17 1748.49,3326.08C1752.24,3308.18 1759.57,3239.17 1765.61,3168.61C1770.19,3114.94 1772.7,3066.91 1780.11,3001.74C1786.36,2946.63 1797.23,2859.58 1806.02,2781.02C1814.38,2706.22 1820.8,2639.12 1822.39,2613.84C1824.83,2575.06 1828.59,2545.05 1829.59,2530.35C1829.97,2524.82 1829.9,2521.69 1829.9,2521.69C1829.9,2521.69 1829.86,2521.64 1829.77,2521.56L1859.81,2254.93C1859.81,2254.93 1822.52,2282.87 1804.27,2297.34C1778.67,2317.64 1737.55,2352.28 1706.19,2376.75C1685.71,2392.74 1665.32,2408.89 1644.37,2424.26C1644.12,2427.92 1643.87,2431.56 1643.62,2435.19C1643.43,2438.1 1643.23,2441 1643.03,2443.88L1642.59,2450.3L1642.34,2453.9L1641.97,2459.25C1641.87,2460.69 1641.77,2462.12 1641.66,2463.55C1639.3,2497.05 1635.55,2542.57 1634.51,2564.03C1634.06,2573.46 1636.8,2586.48 1635.48,2592.33C1634.66,2595.97 1630.14,2597.99 1626.59,2599.14C1624.08,2599.94 1619.62,2601.82 1616.26,2601.85L1616.13,2601.85C1614.36,2601.84 1612.91,2601.3 1612.23,2599.8C1610.19,2595.31 1613.58,2581.4 1614.36,2572.21L1614.84,2566.53L1615.41,2559.8L1616.07,2552.16L1616.79,2543.74L1618.38,2525.22L1621.73,2486.35L1623.35,2467.5C1624.38,2455.57 1625.28,2445.05 1625.92,2437.47C1622.68,2439.72 1619.43,2441.95 1616.15,2444.16C1575.48,2471.51 1490.69,2522.98 1462.17,2540.88C1456.46,2544.46 1449.91,2550.61 1444.99,2551.54C1440.62,2552.37 1433.7,2544.42 1432.65,2546.46C1432.09,2547.54 1432.56,2551.22 1433.8,2555.05C1430.4,2550.68 1428.19,2546.37 1427.92,2542.76C1427.05,2531.28 1448.19,2518.75 1460.29,2508.85C1479.14,2493.43 1514.41,2470.14 1541.05,2450.22C1561.84,2434.66 1594.55,2410.16 1630.25,2383.34C1630.47,2380.43 1630.71,2377.31 1630.96,2374L1631.07,2372.59C1632.11,2358.98 1633.36,2342.41 1634.71,2324.75L1635.58,2313.29L1635.87,2309.45L1636.62,2299.69L1637.66,2285.99L1638.19,2279.16L1638.7,2272.56L1639.26,2265.33L1639.82,2258.16L1640.37,2251.11L1640.77,2246.02L1641.26,2239.74L1641.75,2233.64L1642.22,2227.72L1642.46,2224.72L1642.68,2222.02L1642.95,2218.7L1643.13,2216.55L1643.42,2212.96L1643.59,2211.02L1643.97,2206.39L1644.37,2201.74L1644.56,2199.53L1644.74,2197.41L1644.91,2195.45ZM1567.83,2982.9C1557.53,3008.84 1547.86,3035.12 1539.26,3057.52C1537.45,3062.23 1535.64,3067.02 1533.85,3071.86C1540.4,3052.19 1547.19,3033.02 1554.17,3015.74C1558.48,3005.06 1563.06,2994.04 1567.83,2982.9ZM1664.43,2805.18C1663.13,2807.13 1661.85,2809.07 1660.61,2810.98C1646.78,2832.18 1625.93,2864.05 1608.4,2895.34C1617,2878.37 1625.49,2862.72 1633.49,2849.39C1642.35,2834.65 1653.07,2819.39 1664.43,2805.18ZM1598.92,1974.24C1600.46,1974.43 1599.89,1982.36 1599.16,1985.42C1597.99,1990.28 1594.03,1997.81 1591.13,2003.85C1586.68,2013.12 1578.2,2029.41 1572.45,2041.02C1567.11,2051.82 1561.9,2062.68 1556.64,2073.53C1551.22,2084.72 1544.78,2097.92 1539.91,2108.18C1535.66,2117.12 1531.77,2126.22 1527.42,2135.11C1522.05,2146.06 1514.44,2161.06 1507.68,2173.9C1499.94,2188.61 1488.95,2208.81 1480.96,2223.38C1474,2236.07 1466,2249.78 1459.76,2261.28C1454.17,2271.55 1448.68,2281.89 1443.49,2292.36C1438.3,2302.82 1433.33,2313.39 1428.61,2324.07C1423.26,2336.16 1416.88,2351.19 1411.39,2364.9C1405.21,2380.37 1398.15,2399.55 1391.49,2416.86C1383.38,2437.93 1370.85,2471.1 1362.73,2491.36C1356.39,2507.17 1349.21,2523.24 1342.78,2538.41C1336.57,2553.05 1330.14,2567.61 1324.14,2582.34C1318.09,2597.19 1312.52,2614.44 1306.47,2627.49C1301.15,2638.99 1292.87,2654.7 1287.88,2660.66C1286.17,2662.71 1282.56,2663.68 1279.71,2663.73L1279.51,2663.74C1278.3,2663.74 1277.23,2663.58 1276.53,2663.26C1274.15,2662.19 1272.6,2657.2 1273.65,2654.22C1276.9,2645.06 1289.05,2623.84 1296,2608.3C1304.24,2589.91 1315.57,2561.01 1323.06,2543.88C1328.72,2530.94 1335.45,2518.49 1340.96,2505.49C1348.07,2488.7 1358.43,2461.52 1365.73,2443.1C1372.09,2427.04 1378.45,2410.99 1384.75,2394.92C1391.5,2377.71 1399.24,2356.04 1406.2,2339.84C1412.36,2325.51 1419.66,2311.7 1426.54,2297.7C1433.6,2283.35 1441.35,2267.19 1448.56,2253.72C1455.25,2241.22 1463.16,2228.67 1469.79,2216.87C1476.1,2205.63 1482.27,2194.3 1488.33,2182.92C1495.61,2169.26 1506.49,2148.83 1513.42,2134.9C1519.24,2123.2 1524.07,2111.01 1529.91,2099.32C1536.1,2086.93 1544.76,2071.75 1550.55,2060.57C1555.4,2051.21 1559.63,2041.53 1564.63,2032.25C1569.66,2022.92 1575.36,2013.83 1580.72,2004.61C1586.3,1995.02 1595.06,1977.86 1598.13,1974.66C1598.42,1974.36 1598.67,1974.23 1598.88,1974.24L1598.92,1974.24ZM539.229,2639.65C536.867,2643.07 534.67,2646.37 532.709,2649.5C531.024,2652.19 529.352,2654.89 527.7,2657.61C531.369,2651.77 535.132,2645.96 538.77,2640.36L539.229,2639.65ZM1499.81,1991.48C1499.88,1991.49 1499.92,1991.51 1499.95,1991.55C1501.22,1993.37 1470.07,2032.97 1455.79,2052.23C1442.14,2070.66 1427.57,2088.42 1414.3,2107.13C1400.25,2126.96 1386.45,2150.34 1371.46,2171.21C1353.85,2195.73 1322.86,2232.67 1308.65,2254.26C1299.19,2268.65 1294.79,2285.86 1286.22,2300.8C1274.13,2321.87 1249.36,2358.97 1236.08,2380.7C1225.92,2397.34 1216.37,2414.34 1206.55,2431.18C1195.51,2450.09 1180.53,2475.22 1169.85,2494.18C1160.41,2510.95 1151.94,2529.45 1142.46,2544.98C1133.48,2559.68 1122.35,2573.36 1112.93,2587.4C1103.68,2601.18 1091.96,2621.66 1085.92,2629.24C1083.96,2631.7 1079.5,2632.88 1077.06,2632.91L1076.72,2632.9C1074.6,2632.83 1070.93,2630.61 1071.92,2628.73C1080.09,2613.29 1110.6,2565.86 1125.73,2540.21C1138.43,2518.66 1150.27,2496.6 1162.65,2474.85C1176.38,2450.74 1192.6,2421.79 1208.07,2395.54C1226.43,2364.38 1258.46,2312.75 1272.84,2287.87C1280.65,2274.34 1285.78,2259.29 1294.35,2246.23C1309.21,2223.62 1345.21,2175.79 1362,2152.17C1373.21,2136.41 1383.23,2119.79 1395.1,2104.53C1409.47,2086.06 1430.75,2060.17 1448.22,2041.34C1464.06,2024.27 1496.84,1991.58 1499.78,1991.48L1499.81,1991.48ZM608.895,2523.5C604.455,2535.05 596.905,2552.12 589.239,2566.64C590.286,2564.94 591.258,2563.32 592.145,2561.78C598.853,2550.16 605.341,2535.43 608.895,2523.5ZM615.141,2291.22C608.661,2278.37 602.113,2258.46 600.968,2268.06C598.295,2290.48 602.61,2393.94 603.621,2433.23C604.226,2456.78 605.68,2490.09 607.028,2503.82C607.315,2506.75 610.076,2509.36 611.312,2512.03C611.668,2503.28 607.316,2494.45 606.756,2485.58C605.684,2468.58 605.231,2436.25 604.508,2413.38C603.823,2391.7 602.928,2370.03 602.42,2348.34C601.851,2324.02 601.091,2267.44 601.091,2267.44C601.091,2267.44 607.941,2280.99 612.299,2287.18C613.177,2288.43 614.128,2289.78 615.141,2291.22ZM669.067,2349.94C678.889,2358.8 689.446,2367.51 699.746,2374.26C723.629,2389.91 754.845,2404.13 781.548,2414.09C793.144,2418.41 806.763,2421.99 819.87,2425.05C798.622,2418.32 766.288,2408.01 743.806,2397.03C717.472,2384.17 689.575,2365.92 669.067,2349.94ZM826.885,2414.25C827.81,2414.59 828.7,2414.92 829.557,2415.24C833.454,2416.71 838.153,2417.72 842.913,2418.52C842.491,2418.42 842.078,2418.32 841.675,2418.22C837.727,2417.2 832.438,2415.82 826.885,2414.25ZM717.818,2364.87C725.256,2369.77 732.878,2374.45 740.695,2378.67C752.868,2385.24 766.807,2390.81 778.595,2395.94C780.431,2396.74 782.284,2397.54 784.148,2398.35C763.729,2390.3 741.697,2380.52 724.603,2369.43C722.36,2367.97 720.095,2366.45 717.818,2364.87ZM648.512,2099.16C639.986,2118.86 630.719,2140.24 628.341,2161.98C626.998,2174.26 625.746,2189.84 627.136,2202.79C628.427,2214.82 631.42,2224.71 635.733,2236.24C644.28,2259.09 655.689,2281.73 671.803,2300.25C691.473,2322.86 716.496,2341.78 741.591,2357.89C765.621,2373.31 789.788,2383.11 817.6,2389.45C831.771,2392.69 845.973,2395.9 860.347,2398.06C860.961,2398.15 869.996,2397.87 872.152,2395.78C872.501,2395.44 872.314,2394.52 871.861,2394.34C861.442,2390.22 850.734,2386.88 840.174,2383.13C803.93,2370.29 791.38,2367.46 757.451,2348.75C717.811,2326.89 683.638,2293.18 663.095,2252.76C653.408,2233.69 648.403,2210.33 646.006,2189.43C643.693,2169.26 649.669,2151.01 657.448,2132.74C681.547,2076.15 729.643,2032.84 785.031,2007.39C809.585,1996.12 842.443,1984.52 868.436,1977.18C871.17,1976.41 889.998,1971.61 903.458,1970.27C906.539,1969.97 910.089,1960.35 906.416,1958.55C901.083,1955.93 889.108,1957.59 885.275,1958.34C858.664,1963.57 850.115,1964.38 821.727,1973.3C801.369,1979.7 779.527,1987.43 760.32,1997.6C716.684,2020.7 677.749,2059.76 648.512,2099.16ZM630.468,2311.61C631.097,2312.37 631.73,2313.11 632.367,2313.85C633.003,2314.58 633.643,2315.31 634.286,2316.02C632.979,2314.53 631.704,2313.06 630.468,2311.61ZM598.114,2117.21C595.508,2127.69 594.176,2139.06 593.172,2148.7C592.148,2158.55 591.866,2168.49 592.373,2178.38C592.916,2188.97 593.859,2201.39 596.434,2212.25C598.994,2223.05 603.411,2233.35 607.822,2243.54C611.217,2251.37 614.945,2260.03 619.314,2268.25C610.038,2253.25 602.945,2236.75 598.192,2220.11C591.225,2195.72 588.012,2160.24 591.868,2141.75C593.506,2133.9 595.586,2125.64 598.114,2117.21ZM652.134,2020.48C646.252,2027 640.713,2033.79 635.689,2040.64C627.336,2052.03 619.889,2064.79 613.797,2076.91C611.897,2080.69 610.055,2084.58 608.314,2088.53C618.808,2063.24 633.33,2038.61 652.099,2020.51L652.134,2020.48ZM1328.36,2001.57C1339.66,2001.06 1362.27,2000.04 1373.64,1996.47C1382.59,1993.67 1388.71,1985.29 1396.58,1980.18C1405.21,1974.58 1417.03,1970.31 1425.41,1962.86C1434.56,1954.72 1444.62,1938.96 1451.51,1931.34C1456.16,1926.19 1463.85,1921.21 1466.73,1917.13C1468.74,1914.29 1465.37,1906.36 1468.8,1906.89C1472.24,1907.41 1481.26,1917.84 1487.35,1920.28C1492.92,1922.53 1503.86,1926.73 1505.33,1921.57C1506.8,1916.42 1501.57,1899.13 1496.18,1889.34C1489.5,1877.21 1476.07,1860.74 1465.25,1848.77C1454.93,1837.36 1444.01,1826.16 1431.26,1817.55C1416.11,1807.32 1388.01,1793.56 1374.35,1787.37C1366.46,1783.79 1357.95,1781.11 1349.31,1780.39C1337,1779.36 1315.4,1778.25 1300.45,1781.21C1286,1784.07 1272.22,1790.52 1259.61,1798.15C1244.49,1807.29 1222.95,1822.88 1209.74,1836.07C1197.8,1847.99 1188.81,1863.58 1180.36,1877.29C1172.27,1890.43 1156.73,1906.81 1159.04,1918.38C1161.35,1929.94 1182.26,1937.55 1194.22,1946.68C1207.49,1956.81 1224.36,1969.61 1238.7,1979.19C1252.13,1988.16 1270.87,1998.82 1280.24,2004.14L1328.36,2001.57ZM1934.49,1645.1C1941.58,1639.85 1955.91,1627.49 1959,1621.72C1961,1617.98 1953.94,1614.64 1952.99,1610.51C1951.98,1606.1 1954.67,1600.02 1952.9,1595.25C1950.3,1588.25 1942.87,1577.2 1937.37,1568.47C1931.31,1558.85 1925,1546.67 1916.54,1537.58C1907.63,1528.01 1893.37,1517.85 1883.9,1511.06C1876.31,1505.61 1867.12,1497.96 1859.74,1496.82C1852.69,1495.73 1846.62,1502.71 1839.65,1504.21C1832.43,1505.76 1824.01,1504.32 1816.46,1506.12C1807.58,1508.24 1794.69,1513.02 1786.36,1516.9C1779.27,1520.21 1772.5,1524.4 1766.49,1529.42C1755.09,1538.97 1726.58,1563.36 1717.94,1574.16C1713.69,1579.47 1715.02,1587.67 1714.62,1594.27C1714.23,1600.76 1712.09,1608.24 1715.53,1613.76C1719.23,1619.7 1729.01,1626.79 1736.81,1629.92C1744.61,1633.05 1754.05,1634.64 1762.34,1632.52C1771.22,1630.24 1780.41,1620.83 1790.12,1616.25C1801.08,1611.07 1817.34,1603.41 1828.12,1601.47C1836.93,1599.88 1846.99,1601.38 1854.8,1604.61C1862.62,1607.84 1868.61,1615.05 1875.01,1620.86C1882.27,1627.44 1891.47,1638.7 1898.37,1644.1C1903.68,1648.26 1910.41,1653.07 1916.43,1653.24C1922.45,1653.4 1929.18,1649.03 1934.49,1645.1ZM1454.46,1507.76C1450.71,1503.65 1448.35,1488.9 1450.15,1485.06C1451.95,1481.22 1461.43,1483.05 1465.27,1484.7C1469.11,1486.35 1471.97,1490.82 1473.19,1494.96C1474.42,1499.12 1475.78,1507.56 1472.66,1509.69C1469.54,1511.82 1458.21,1511.86 1454.46,1507.76ZM1131.82,1506.31C1136.14,1508.17 1149.38,1507.52 1154.19,1505.69C1157.99,1504.25 1159.76,1499.23 1160.68,1495.37C1161.6,1491.51 1160.78,1485.11 1159.72,1482.54C1158.96,1480.7 1156.3,1480.25 1154.32,1479.96C1150.94,1479.46 1143.51,1478.73 1139.41,1479.55C1135.79,1480.27 1131.55,1482.35 1129.69,1484.85C1127.84,1487.35 1127.96,1491.29 1128.28,1494.54C1128.63,1498.12 1128.06,1504.69 1131.82,1506.31ZM1386.44,1400.53C1383.77,1399.03 1383.02,1395.2 1382.63,1392.16C1382.19,1388.68 1381.68,1381.75 1383.77,1379.63C1385.85,1377.52 1392.03,1378.67 1395.14,1379.47C1397.97,1380.21 1401.24,1381.84 1402.38,1384.44C1403.53,1387.05 1402.56,1392.28 1402.04,1395.13C1401.62,1397.41 1401.44,1400.74 1399.25,1401.5C1396.65,1402.4 1389.21,1402.09 1386.44,1400.53ZM779.46,1376.41C781.372,1377.04 788.148,1377.53 790.237,1376.41C792.278,1375.31 791.836,1371.88 791.991,1369.68C792.144,1367.53 791.312,1365.17 791.17,1363.26C791.046,1361.59 791.892,1359.23 791.141,1358.23C790.389,1357.22 788.184,1357.37 786.661,1357.22C784.048,1356.96 777.748,1356.3 775.46,1356.65C774.244,1356.84 773.079,1358.13 772.937,1359.35C772.769,1360.79 773.51,1363.96 774.453,1365.32C775.343,1366.59 777.877,1366.24 778.595,1367.46C779.313,1368.68 778.616,1371.15 778.76,1372.64C778.883,1373.91 778.246,1376.01 779.46,1376.41ZM961.737,1132.84C960.019,1131.71 958.87,1129.23 958.669,1127.06C958.468,1124.88 959.446,1121.42 960.529,1119.78C961.503,1118.3 963.394,1117.14 965.167,1117.17C967.461,1117.2 972.572,1118.69 974.293,1119.99C975.652,1121.01 975.566,1123.25 975.494,1124.95C975.411,1126.93 974.88,1130.38 973.793,1131.87C972.766,1133.27 970.707,1133.73 968.973,1133.87C966.964,1134.03 963.454,1133.98 961.737,1132.84ZM758.65,1018.46C760.706,1020.12 765.169,1020.86 767.049,1019.64C768.929,1018.43 769.63,1013.6 769.929,1011.17C770.181,1009.12 769.945,1006.62 768.846,1005.08C767.748,1003.54 765.334,1002.27 763.336,1001.93C761.338,1001.6 758.295,1001.78 756.858,1003.07C755.421,1004.35 754.448,1007.36 754.715,1009.65C755.013,1012.21 756.594,1016.79 758.65,1018.46ZM1014.45,829.433C1013.45,827.078 1013.4,821.872 1015.58,820.288C1017.75,818.704 1024.41,818.889 1027.51,819.93C1030.47,820.927 1032.69,823.784 1034.17,826.537C1035.7,829.371 1037.82,835.107 1036.68,836.932C1035.54,838.756 1029.86,837.904 1027.34,837.484C1025.2,837.127 1023.43,835.569 1021.58,834.417C1019.43,833.075 1015.45,831.787 1014.45,829.433ZM790.359,538.588C788.451,538.087 784.621,536.57 783.333,534.549C782.046,532.528 782.597,529.166 782.634,526.463C782.672,523.76 782.395,520.07 783.558,518.332C784.721,516.593 787.499,516.273 789.612,516.032C791.724,515.791 794.824,515.431 796.233,516.886C797.642,518.34 798.175,522.066 798.065,524.757C797.955,527.488 796.116,531.135 795.568,533.268C795.207,534.675 795.649,536.667 794.781,537.554C793.913,538.44 791.823,538.973 790.359,538.588Z" style="fill:rgb(242,175,13);"/>
    <g id="FSilkS">
        <path d="M1309.62,1818.44C1308.3,1817.61 1297.13,1817.77 1291.46,1819.92C1284.09,1822.72 1271.95,1831.16 1265.44,1835.21C1260.95,1838 1255.84,1840.2 1252.4,1844.21C1248.28,1849.03 1243.38,1856.9 1240.67,1864.11C1237.84,1871.63 1235.66,1880.76 1235.43,1889.35C1235.2,1898.17 1236.5,1908.13 1239.25,1917.03C1242.02,1925.99 1246.62,1935.75 1252.05,1943.08C1257.35,1950.23 1264.27,1956.31 1271.83,1960.99C1280.06,1966.09 1291.15,1971.26 1301.44,1973.66C1311.73,1976.06 1323.02,1977.31 1333.57,1975.39C1345.27,1973.26 1360.31,1966.43 1371.66,1960.88C1382.27,1955.69 1395.29,1946.08 1401.67,1942.07C1404.44,1940.33 1407.96,1939.4 1409.94,1936.8C1412.81,1933.02 1417.53,1925.77 1418.89,1919.39C1420.51,1911.79 1419.62,1900.48 1419.67,1891.21C1419.72,1882.05 1420.98,1871.26 1419.17,1863.74C1417.57,1857.1 1412.34,1850.8 1408.8,1846.07C1405.76,1842 1401.89,1838.2 1397.97,1835.36C1394.15,1832.59 1389.94,1829.9 1385.3,1829.02C1379.16,1827.86 1367.93,1827.76 1361.16,1828.4C1355.51,1828.93 1349.97,1831.44 1344.71,1832.87C1339.68,1834.24 1334.64,1835.58 1329.62,1836.99C1323.79,1838.63 1315.72,1839.31 1309.7,1842.7C1303.39,1846.25 1296.64,1852.06 1291.78,1858.32C1286.64,1864.93 1281.02,1873.7 1278.89,1882.37C1276.77,1891.03 1277.03,1902.8 1279.04,1910.32C1280.83,1917.05 1285.81,1923.25 1290.93,1927.51C1296.05,1931.78 1302.97,1934.76 1309.74,1935.91C1318.07,1937.32 1332.79,1936.65 1340.91,1935.97C1346.89,1935.47 1353.57,1934.27 1358.43,1931.82C1363.1,1929.47 1367.38,1925.54 1370.06,1921.28C1372.74,1917.02 1373.89,1911.44 1374.52,1906.25C1375.15,1901.06 1375.47,1895.05 1373.84,1890.15C1372.22,1885.24 1368.57,1879.77 1364.77,1876.81C1360.99,1873.86 1355.53,1872.99 1351.06,1872.4C1346.73,1871.83 1342,1872.09 1337.99,1873.29C1333.98,1874.48 1329.7,1876.86 1327,1879.58C1324.36,1882.24 1321.94,1886.81 1321.81,1889.56C1321.68,1892.17 1323.96,1895.14 1326.19,1896.08C1328.42,1897.01 1332.77,1896.17 1335.19,1895.17C1337.52,1894.22 1339,1891.69 1340.75,1890.08C1342.4,1888.55 1343.79,1885.91 1345.67,1885.47C1347.54,1885.02 1350.23,1886.1 1352,1887.42C1354.19,1889.06 1357.95,1891.93 1358.86,1895.29C1359.83,1898.86 1359.13,1905.02 1357.82,1908.87C1356.56,1912.58 1354.4,1916.52 1350.98,1918.42C1347.28,1920.49 1340.79,1920.75 1335.6,1921.25C1329.62,1921.83 1320.75,1922.97 1315.1,1921.89C1310.14,1920.93 1304.97,1918.08 1301.73,1914.75C1298.49,1911.41 1296.14,1906.57 1295.64,1901.88C1295.14,1897.19 1296.84,1891.44 1298.71,1886.6C1301.18,1880.17 1306.2,1868.98 1310.47,1863.34C1313.98,1858.71 1319.21,1855.5 1324.34,1852.76C1330.09,1849.71 1339.12,1846.54 1344.96,1845C1349.63,1843.76 1354.79,1843.94 1359.38,1843.52C1363.74,1843.11 1368.2,1841.77 1372.48,1842.45C1376.76,1843.12 1381.44,1844.86 1385.07,1847.57C1389.04,1850.54 1393.15,1856.06 1396.26,1860.22C1399.12,1864.05 1403.02,1867.77 1403.7,1872.51C1404.75,1879.71 1403.85,1894.47 1402.54,1903.46C1401.39,1911.37 1399.18,1921.46 1395.87,1926.48C1393.12,1930.64 1386.81,1930.76 1382.68,1933.55C1377.74,1936.88 1372.28,1942.98 1366.24,1946.45C1359.19,1950.51 1347.63,1955.51 1340.37,1957.88C1334.69,1959.74 1328.64,1960.43 1322.68,1960.67C1316.66,1960.91 1310.24,1960.86 1304.29,1959.34C1297.7,1957.66 1289.23,1955.21 1283.17,1950.59C1276.45,1945.46 1269.1,1935.62 1264,1928.56C1259.45,1922.26 1254.67,1915.71 1252.61,1908.21C1250.37,1900.1 1249.29,1888.19 1250.6,1879.88C1251.83,1872.07 1256.26,1864.83 1260.44,1858.32C1264.62,1851.82 1270.97,1845.17 1275.7,1840.86C1279.54,1837.35 1284.88,1835.08 1288.81,1832.42C1292.38,1830.01 1295.86,1827.25 1299.32,1824.92C1302.69,1822.66 1310.93,1819.28 1309.62,1818.44Z" style="fill:white;"/>
        <path d="M834.617,3019.43C834.617,3019.43 783.968,2945.09 762.751,2905.53C741.12,2865.19 719.886,2821.79 704.829,2777.41C689.763,2733.01 679.405,2678.55 672.36,2639.11C666.567,2606.67 665.347,2563.49 662.559,2540.75C660.988,2527.94 656.755,2515.52 655.627,2502.66C654.497,2489.78 655.056,2474.83 655.78,2463.48C656.401,2453.76 659.974,2434.56 659.974,2434.56C659.974,2434.56 692.918,2459.3 707.604,2468.26C720.459,2476.1 734.234,2484.96 748.089,2488.29C761.91,2491.61 776.707,2488.27 790.735,2488.25C804.575,2488.23 818.415,2488.25 832.255,2488.16C848.082,2488.06 874.376,2489.03 885.696,2487.63C891.15,2486.95 898.2,2484.88 900.175,2479.75C902.371,2474.04 900.377,2459.77 898.875,2453.4C897.794,2448.82 895.385,2443.65 891.167,2441.55C884.682,2438.32 870.345,2436.6 859.964,2434C841.695,2429.42 806.817,2423.51 781.548,2414.09C754.845,2404.13 723.629,2389.91 699.746,2374.26C676.918,2359.3 652.829,2334.72 638.255,2320.2C628.334,2310.32 618.493,2295.97 612.299,2287.18C607.941,2280.99 601.091,2267.44 601.091,2267.44C601.091,2267.44 601.851,2324.02 602.42,2348.34C602.928,2370.03 603.823,2391.7 604.508,2413.38C605.231,2436.25 605.684,2468.58 606.756,2485.58C607.386,2495.57 612.824,2505.5 610.938,2515.33C608.503,2528.03 600.494,2547.32 592.145,2561.78C580.117,2582.62 552.353,2619.45 538.77,2640.36C528.843,2655.64 517.989,2672.49 510.646,2687.23C504.027,2700.52 498.813,2715.46 494.708,2728.81C490.837,2741.41 486.138,2760.07 486.013,2767.37C485.959,2770.53 491.73,2770.32 493.96,2772.57C501.696,2780.37 518.729,2801.37 532.43,2814.15C546.098,2826.9 561.285,2837.93 576.164,2849.24C594.931,2863.51 624.757,2885.38 645.034,2899.75C662.369,2912.04 681.772,2924.86 697.827,2935.48C712.217,2945 726.839,2954.16 741.363,2963.47C757.393,2973.75 778.467,2987.83 794.009,2997.16C807.247,3005.1 834.617,3019.43 834.617,3019.43Z" style="fill:white;"/>
        <path d="M1071.92,2628.73C1080.09,2613.29 1110.6,2565.86 1125.73,2540.21C1138.43,2518.66 1150.27,2496.6 1162.65,2474.85C1176.38,2450.74 1192.6,2421.79 1208.07,2395.54C1226.43,2364.38 1258.46,2312.75 1272.84,2287.87C1280.65,2274.34 1285.78,2259.29 1294.35,2246.23C1309.21,2223.62 1345.21,2175.79 1362,2152.17C1373.21,2136.41 1383.23,2119.79 1395.1,2104.53C1409.47,2086.06 1430.75,2060.17 1448.22,2041.34C1464.5,2023.79 1498.69,1989.74 1499.95,1991.55C1501.22,1993.37 1470.07,2032.97 1455.79,2052.23C1442.14,2070.66 1427.57,2088.42 1414.3,2107.13C1400.25,2126.96 1386.45,2150.34 1371.46,2171.21C1353.85,2195.73 1322.86,2232.67 1308.65,2254.26C1299.19,2268.65 1294.79,2285.86 1286.22,2300.8C1274.13,2321.87 1249.36,2358.97 1236.08,2380.7C1225.92,2397.34 1216.37,2414.34 1206.55,2431.18C1195.51,2450.09 1180.53,2475.22 1169.85,2494.18C1160.41,2510.95 1151.94,2529.45 1142.46,2544.98C1133.48,2559.68 1122.35,2573.36 1112.93,2587.4C1103.68,2601.18 1091.96,2621.66 1085.92,2629.24C1083.86,2631.82 1079.05,2632.99 1076.72,2632.9C1074.6,2632.83 1070.93,2630.61 1071.92,2628.73Z" style="fill:white;"/>
        <path d="M1273.65,2654.22C1276.9,2645.06 1289.05,2623.84 1296,2608.3C1304.24,2589.91 1315.57,2561.01 1323.06,2543.88C1328.72,2530.94 1335.45,2518.49 1340.96,2505.49C1348.07,2488.7 1358.43,2461.52 1365.73,2443.1C1372.09,2427.04 1378.45,2410.99 1384.75,2394.92C1391.5,2377.71 1399.24,2356.04 1406.2,2339.84C1412.36,2325.51 1419.66,2311.7 1426.54,2297.7C1433.6,2283.35 1441.35,2267.19 1448.56,2253.72C1455.25,2241.22 1463.16,2228.67 1469.79,2216.87C1476.1,2205.63 1482.27,2194.3 1488.33,2182.92C1495.61,2169.26 1506.49,2148.83 1513.42,2134.9C1519.24,2123.2 1524.07,2111.01 1529.91,2099.32C1536.1,2086.93 1544.76,2071.75 1550.55,2060.57C1555.4,2051.21 1559.63,2041.53 1564.63,2032.25C1569.66,2022.92 1575.36,2013.83 1580.72,2004.61C1586.3,1995.02 1595.06,1977.86 1598.13,1974.66C1600.62,1972.07 1600,1981.92 1599.16,1985.42C1597.99,1990.28 1594.03,1997.81 1591.13,2003.85C1586.68,2013.12 1578.2,2029.41 1572.45,2041.02C1567.11,2051.82 1561.9,2062.68 1556.64,2073.53C1551.22,2084.72 1544.78,2097.92 1539.91,2108.18C1535.66,2117.12 1531.77,2126.22 1527.42,2135.11C1522.05,2146.06 1514.44,2161.06 1507.68,2173.9C1499.94,2188.61 1488.95,2208.81 1480.96,2223.38C1474,2236.07 1466,2249.78 1459.76,2261.28C1454.17,2271.55 1448.68,2281.89 1443.49,2292.36C1438.3,2302.82 1433.33,2313.39 1428.61,2324.07C1423.26,2336.16 1416.88,2351.19 1411.39,2364.9C1405.21,2380.37 1398.15,2399.55 1391.49,2416.86C1383.38,2437.93 1370.85,2471.1 1362.73,2491.36C1356.39,2507.17 1349.21,2523.24 1342.78,2538.41C1336.57,2553.05 1330.14,2567.61 1324.14,2582.34C1318.09,2597.19 1312.52,2614.44 1306.47,2627.49C1301.15,2638.99 1292.87,2654.7 1287.88,2660.66C1285.39,2663.64 1278.9,2664.34 1276.53,2663.26C1274.15,2662.19 1272.6,2657.2 1273.65,2654.22Z" style="fill:white;"/>
        <path d="M1667.39,1982.34C1668.15,1977.67 1670.44,1971.54 1673.01,1969.31C1675.48,1967.18 1681.48,1966 1682.79,1968.99C1684.27,1972.37 1682.5,1982.75 1681.9,1989.6C1680.65,2003.99 1677.23,2033.41 1675.29,2055.36C1672.93,2081.88 1670.41,2119.57 1667.8,2148.68C1665.36,2175.84 1662.04,2202.91 1659.6,2230.06C1656.53,2264.3 1652.33,2315.22 1649.34,2354.14C1646.54,2390.59 1644.14,2428.57 1641.66,2463.55C1639.3,2497.05 1635.55,2542.57 1634.51,2564.03C1634.06,2573.46 1636.8,2586.48 1635.48,2592.33C1634.66,2595.97 1630.14,2597.99 1626.59,2599.14C1622.72,2600.38 1614.21,2604.16 1612.23,2599.8C1610.19,2595.31 1613.58,2581.4 1614.36,2572.21C1616.65,2545.02 1623.47,2466.44 1625.99,2436.64C1627.21,2422.25 1628.33,2407.86 1629.46,2393.46C1632.64,2352.92 1641.16,2237.35 1645.09,2193.41C1647,2172.15 1650.86,2151.09 1653.07,2129.85C1655.57,2105.72 1657.74,2073.19 1660.13,2048.6C1662.28,2026.49 1665.24,1995.55 1667.39,1982.34Z" style="fill:white;"/>
        <path d="M1462.65,1323.84C1460.75,1324.19 1459.49,1326.59 1455.87,1327.28C1445.43,1329.27 1425.61,1328.47 1414.28,1326.74C1398.64,1324.35 1382.84,1315.79 1368.86,1309.51C1355.61,1303.56 1340.74,1295.47 1330.39,1289.06C1321.97,1283.84 1311.24,1274.04 1306.76,1271.05C1305.87,1270.45 1304.05,1270.18 1303.53,1271.13C1302.89,1272.29 1303.27,1275.73 1302.94,1278.01C1302.11,1283.94 1300.7,1297.41 1298.52,1306.76C1296.35,1316.05 1293.58,1325.26 1289.85,1334.05C1285.62,1343.99 1278.18,1357.52 1273.17,1366.44C1269.09,1373.7 1264.32,1381.52 1259.8,1387.57C1255.7,1393.05 1249.95,1399.67 1246,1402.75C1243.27,1404.89 1239.58,1405.73 1236.13,1406.07C1231.26,1406.56 1221.08,1406.93 1216.82,1405.65C1213.76,1404.74 1212.75,1400.62 1210.57,1398.41C1208.43,1396.24 1205.62,1394.73 1203.7,1392.35C1201.53,1389.64 1198.71,1385.96 1197.51,1382.17C1195.95,1377.26 1195.02,1369.38 1194.38,1362.9C1193.46,1353.55 1192.44,1338.34 1191.99,1326.03C1191.48,1312.31 1191.51,1290.62 1191.33,1280.54C1191.24,1275.54 1191.41,1269.58 1190.89,1265.56C1190.49,1262.39 1189.14,1258.56 1188.23,1256.37C1187.61,1254.88 1186.98,1252.88 1185.43,1252.4C1183.48,1251.8 1179.5,1252.76 1176.53,1252.74C1172.93,1252.7 1168.06,1251.81 1163.84,1252.23C1159.33,1252.68 1154.27,1254.52 1149.43,1255.45C1143.9,1256.51 1136.34,1258.63 1130.64,1258.6C1125.38,1258.57 1119.07,1256.35 1115.23,1255.26C1112.56,1254.51 1110.11,1253.15 1107.56,1252.1C1104.28,1250.74 1098.68,1250.11 1095.54,1247.12C1091.79,1243.56 1086.78,1236.85 1085.05,1230.69C1083.32,1224.52 1083.36,1216.35 1085.16,1210.13C1086.95,1203.91 1091.64,1198.5 1095.81,1193.35C1100.06,1188.11 1105.01,1182.71 1110.67,1178.64C1117.5,1173.74 1128.45,1167.84 1136.78,1163.92C1144.46,1160.31 1153.82,1157.77 1160.68,1155.12C1166.49,1152.88 1174.03,1149.6 1177.98,1148.04C1180.08,1147.21 1184.38,1145.77 1184.38,1145.77C1184.38,1145.77 1185.33,1127.59 1185.2,1118.49C1185.04,1107.78 1183.87,1093.86 1183.44,1081.53C1182.97,1068.41 1182.64,1051.56 1182.42,1039.75C1182.25,1030.06 1182,1018.15 1182.17,1010.68C1182.29,1005.43 1182.87,998.601 1183.48,994.976C1183.83,992.847 1184,990.111 1185.8,988.934C1187.88,987.584 1193.23,987.024 1195.92,986.878C1197.98,986.767 1200.22,987 1201.99,988.06C1204.04,989.286 1206.41,991.937 1208.21,994.236C1211.71,998.705 1217.96,1008.07 1223,1014.87C1228.13,1021.8 1233.61,1028.85 1238.99,1035.78C1245.57,1044.26 1254.71,1055.7 1262.5,1065.72C1270.66,1076.21 1279.65,1088.13 1287.95,1098.74C1295.99,1109 1304.21,1119.12 1312.31,1129.34C1320.45,1139.62 1328.64,1150.04 1336.78,1160.4C1345.41,1171.38 1355.09,1183.55 1364.1,1195.24C1373.61,1207.59 1385.75,1223.99 1393.88,1234.48C1400.09,1242.48 1406.71,1250.16 1412.91,1258.16C1420.08,1267.42 1430.22,1281.29 1436.92,1290.05C1442.24,1297 1449.1,1305.71 1453.12,1310.73C1455.68,1313.92 1459.45,1317.95 1461.04,1320.14C1461.83,1321.23 1463.98,1323.6 1462.65,1323.84Z" style="fill:white;"/>
        <path d="M1053.77,1291.13C1047.2,1290.07 1033.21,1290.6 1023.12,1288.83C1011.22,1286.74 995.428,1283.67 982.378,1278.59C968.212,1273.08 949.288,1262.88 938.127,1255.78C929.651,1250.38 921.95,1243.6 915.413,1235.97C908.713,1228.15 902.622,1218.54 897.927,1208.87C892.698,1198.1 886.322,1183.1 884.038,1171.35C881.942,1160.58 882.976,1149.32 884.223,1138.41C885.506,1127.2 888.199,1115.23 891.733,1104.04C895.363,1092.56 901.463,1079.92 906.002,1069.5C910.108,1060.08 914.081,1049.84 918.968,1041.51C923.589,1033.64 930.045,1026.34 935.323,1019.55C940.28,1013.18 946.899,1005.73 950.64,1000.78C953.259,997.316 955.077,993.283 957.766,989.872C960.693,986.159 966.111,981.579 968.2,978.502C969.585,976.462 970.095,973.187 970.301,971.409C970.442,970.192 970.327,968.541 969.436,967.836C968.546,967.132 966.463,967.265 964.956,967.182C961.197,966.978 952.849,965.751 946.883,966.608C940.659,967.502 933.896,970.163 927.61,972.545C919.059,975.786 905.711,980.43 895.578,986.049C884.207,992.356 870.304,1001.39 859.385,1010.38C848.658,1019.22 838.697,1029.25 830.063,1040.03C821.429,1050.8 813.572,1063.32 807.583,1075.03C801.852,1086.24 797.273,1099.71 794.125,1110.32C791.385,1119.56 789.728,1129.12 788.692,1138.7C787.598,1148.82 787.014,1160.26 787.56,1171.03C788.114,1181.93 789.472,1194.21 792.013,1204.12C794.372,1213.33 798.598,1221.99 802.807,1230.51C807.814,1240.64 814.987,1255.41 822.05,1264.91C828.484,1273.57 836.856,1280.69 845.188,1287.54C853.983,1294.77 864.81,1302.68 874.823,1308.31C884.442,1313.72 894.699,1318.13 905.266,1321.31C917.783,1325.07 935.771,1329.18 949.924,1330.87C963.251,1332.46 977.055,1332.59 990.185,1331.44C1003.21,1330.29 1018.65,1326.32 1028.7,1323.96C1036.1,1322.22 1046.32,1319.49 1050.48,1317.24C1052.68,1316.05 1052.64,1312.09 1053.66,1310.46C1054.4,1309.27 1055.41,1308.19 1056.59,1307.44C1058.12,1306.45 1061.31,1305.3 1062.88,1304.54C1063.95,1304.03 1065.49,1303.9 1066.01,1302.89C1066.54,1301.87 1066.6,1299.73 1066.01,1298.44C1065.43,1297.16 1063.88,1296.01 1062.52,1295.19C1060.48,1293.97 1056.94,1291.64 1053.77,1291.13Z" style="fill:white;"/>
        <path d="M680.574,313.738L715.858,358.746C715.858,358.746 714.969,395.388 714.72,411.885C714.49,427.165 714.765,447.585 714.367,457.729C714.169,462.779 712.299,467.813 712.333,472.752C712.367,477.681 714.427,482.441 714.57,487.368C714.755,493.791 714.072,504.308 713.448,511.295C712.909,517.332 711.63,523.28 710.827,529.287C709.999,535.475 708.808,542.008 708.483,548.427C708.154,554.932 708.851,568.315 708.851,568.315C708.851,568.315 712.542,570.5 713.981,572.05C716.387,574.641 720.07,580.018 723.286,583.862C729.106,590.82 741.063,604.767 748.902,613.798C755.972,621.943 766.42,633.539 770.319,638.049C771.067,638.915 771.447,640.508 772.296,640.857C773.146,641.207 774.468,640.636 775.415,640.146C776.986,639.333 779.403,636.965 781.722,635.979C784.744,634.696 789.634,631.385 795.415,629.208C802.045,626.713 809.687,625.321 814.34,623.609C823.05,620.404 831.953,615.263 836.964,612.687C839.547,611.36 841.909,609.64 844.405,608.156C847.541,606.292 851.687,603.104 855.777,601.506C860.019,599.848 866.289,599.037 869.859,598.209C872.302,597.641 874.696,596.76 877.194,596.534C880.119,596.269 884.678,596.201 887.41,596.617C889.595,596.95 892.628,597.039 893.586,599.031C894.766,601.484 894.315,607.624 894.488,611.333C894.644,614.646 894.345,618.3 894.628,621.282C894.883,623.969 896.447,626.54 896.188,629.226C895.897,632.243 894.167,636.06 892.883,639.38C890.32,646.007 884.868,659.135 880.805,668.99C876.669,679.025 871.088,692.649 868.066,699.588C866.432,703.341 863.759,708.199 862.678,710.625C862.179,711.745 861.588,713.103 861.583,714.139C861.578,715.108 862.023,716.103 862.649,716.843C864.799,719.385 871.138,725.606 874.482,729.389C877.368,732.654 880.167,736.009 882.715,739.544C885.32,743.159 887.331,747.457 890.116,751.078C893.279,755.19 897.707,759.949 901.689,764.215C906.048,768.885 913.288,776.111 916.271,779.096C917.328,780.154 918.829,780.833 919.582,782.126C920.462,783.638 920.306,786.452 921.55,788.166C923.118,790.327 926.394,792.912 928.99,795.09C931.94,797.566 936.25,800.343 939.252,803.019C942.047,805.51 945.376,808.401 947.001,811.149C948.458,813.613 948.09,816.851 949,819.502C949.899,822.122 951.364,825.263 952.461,827.057C953.238,828.329 955.194,828.825 955.578,830.266C956.077,832.139 955.737,835.968 955.453,838.298C955.206,840.335 955.609,843.145 953.879,844.248C951.562,845.724 945.693,846.333 941.553,847.157C937.081,848.048 931.95,849.536 927.047,849.591C921.613,849.653 914.886,848.798 908.948,847.525C901.504,845.928 890.612,842.675 882.383,840.014C874.669,837.52 867.187,834.356 859.576,831.563C851.61,828.64 841.197,824.901 834.586,822.476C829.686,820.678 824.794,818.857 819.911,817.013C814.616,815.012 807.09,812.128 802.817,810.474C799.961,809.369 796.032,807.783 794.274,807.092C793.608,806.83 792.751,806.226 792.268,806.328C791.785,806.431 791.588,807.203 791.376,807.708C789.603,811.918 785.004,823.682 781.628,831.589C777.334,841.646 770.714,856.226 765.614,868.05C760.672,879.511 754.613,894.893 751.032,902.537C749.15,906.554 746.993,910.596 744.128,913.914C741.264,917.232 736.456,920.894 733.848,922.444C732.293,923.369 730.139,923.366 728.478,923.219C726.854,923.075 725.065,922.678 723.877,921.562C722.44,920.212 720.765,917.484 719.857,915.122C718.588,911.821 716.955,906.314 716.261,901.75C715.135,894.351 713.848,879.336 713.103,870.728C712.509,863.863 712.086,855.269 711.79,850.098C711.591,846.635 711.764,843.143 711.324,839.702C710.418,832.628 706.358,807.651 706.358,807.651C706.358,807.651 705.612,820.337 705.924,826.538C706.232,832.685 707.854,838.715 708.225,844.859C708.604,851.139 708.074,858.128 708.199,864.219C708.316,869.951 708.797,875.672 708.971,881.403C709.243,890.308 709.344,908.452 709.828,917.646C710.162,923.98 711.588,930.228 711.879,936.564C712.385,947.612 712.951,972.94 712.867,983.934C712.819,990.152 711.464,996.311 711.373,1002.53C711.272,1009.44 712.221,1017.96 712.258,1025.4C712.294,1032.66 711.707,1039.91 711.597,1047.17C711.474,1055.25 712.472,1065.01 711.521,1073.85C710.54,1082.96 706.44,1095.76 705.714,1101.83C705.375,1104.66 707.046,1107.41 707.164,1110.26C707.315,1113.93 706.777,1119.44 706.622,1123.85C706.472,1128.14 706.495,1132.44 706.234,1136.72C705.898,1142.24 704.947,1151.66 704.608,1156.97C704.36,1160.85 704.024,1165.52 704.197,1168.6C704.327,1170.95 705.545,1173.15 705.641,1175.49C705.771,1178.64 705.176,1183.5 704.975,1187.51C704.723,1192.56 704.383,1199.68 704.126,1205.77C703.787,1213.82 703.243,1228.19 702.938,1235.82C702.729,1241.06 702.012,1246.34 702.297,1251.54C702.582,1256.73 704.564,1261.78 704.651,1266.98C704.785,1275.06 703.128,1288.96 703.103,1299.97C703.076,1311.84 703.971,1326.67 704.49,1338.17C704.953,1348.44 706.036,1360 706.215,1368.97C706.367,1376.65 705.331,1384.32 705.561,1392C705.868,1402.28 707.402,1417.74 708.059,1430.63C708.751,1444.17 709.245,1459.05 709.708,1473.26C710.238,1489.51 710.961,1513.53 711.235,1528.12C711.44,1539.02 711.212,1553.31 711.354,1560.81C711.431,1564.93 711.065,1569.15 712.085,1573.14C713.142,1577.28 716.678,1581.18 717.695,1585.63C718.751,1590.24 718.385,1596.61 718.416,1600.83C718.441,1604.19 717.824,1607.74 717.883,1610.9C717.938,1613.89 718.565,1617.79 718.768,1619.82C718.876,1620.89 718.145,1622.84 719.1,1623.04C720.055,1623.24 722.866,1622.04 724.499,1621.03C726.941,1619.51 730.796,1615.91 733.755,1613.95C736.453,1612.16 739.96,1610.4 742.255,1609.26C743.953,1608.41 746.659,1607.9 747.523,1607.11C748.166,1606.52 747.701,1605.33 747.442,1604.49C747.056,1603.25 745.709,1601.34 745.204,1599.63C744.411,1596.94 743.425,1592.15 742.689,1588.38C741.455,1582.06 739.241,1570.63 737.803,1561.71C735.804,1549.29 731.984,1526.05 730.692,1513.91C729.808,1505.6 730.272,1495.61 730.049,1488.86C729.879,1483.71 726.394,1476.16 729.357,1473.41C732.32,1470.66 743.199,1471.5 747.827,1472.36C751.495,1473.05 754.29,1476.17 757.125,1478.59C762.106,1482.85 771.485,1490.86 777.713,1497.92C784.339,1505.42 792.233,1516.7 796.88,1523.63C800.246,1528.66 802.098,1534.62 805.599,1539.55C809.445,1544.96 816.712,1552.39 819.953,1556.13C821.644,1558.08 823.96,1560.73 825.047,1561.96C825.512,1562.48 825.89,1563.41 826.474,1563.51C827.058,1563.61 827.873,1562.89 828.551,1562.54C835.188,1559.08 856.534,1547.58 866.291,1542.75C873.084,1539.39 880.737,1535.82 887.089,1533.56C892.697,1531.55 899.796,1529.83 904.401,1529.15C907.805,1528.64 911.634,1529.93 914.72,1529.44C917.622,1528.98 920.004,1526.57 922.919,1526.2C927.046,1525.68 936.597,1524.77 939.486,1526.32C942.194,1527.77 940.892,1532.5 940.254,1535.5C939.395,1539.55 936.368,1545.58 934.334,1550.59C931.905,1556.56 928.867,1564.58 925.677,1571.38C921.734,1579.78 915.114,1593.17 910.674,1600.99C907.241,1607.04 902.304,1613.87 899.037,1618.31C896.615,1621.6 893.089,1625.36 891.069,1627.62C889.749,1629.09 887.331,1630.58 886.918,1631.87C886.524,1633.11 887.717,1634.43 888.593,1635.38C890.495,1637.46 895.232,1641.19 898.33,1644.33C901.719,1647.75 905.464,1652.01 908.925,1655.94C913.602,1661.26 920.544,1669.49 926.392,1676.23C932.341,1683.09 939.598,1690.82 944.619,1697.08C948.902,1702.43 954.061,1709.37 956.52,1713.84C958.199,1716.89 959.095,1721.42 959.371,1723.89C959.551,1725.51 959.494,1727.67 958.171,1728.62C956.617,1729.74 952.814,1730.29 950.042,1730.59C946.601,1730.96 941.688,1731.16 937.525,1730.86C932.453,1730.5 925.552,1729.44 919.616,1728.41C912.249,1727.12 901.959,1725.37 893.318,1723.14C884.677,1720.91 874.816,1717.38 867.771,1715.02C862.154,1713.14 856.317,1711.06 851.05,1709.01C846.032,1707.06 839.795,1704.18 836.17,1702.72C833.911,1701.81 831.175,1700.65 829.301,1700.23C827.877,1699.91 826.016,1699.43 824.924,1700.21C823.832,1700.98 823.35,1703.26 822.747,1704.87C820.931,1709.7 816.778,1721.04 814.028,1729.21C811.099,1737.91 808.376,1747.88 805.171,1757.09C801.92,1766.42 797.895,1777.23 794.526,1785.23C791.676,1791.99 787.551,1801.16 784.958,1805.06C783.668,1807.01 781.139,1807.83 778.964,1808.67C776.772,1809.51 774.231,1809.92 771.805,1810.14C769.063,1810.38 764.707,1810.79 762.511,1810.14C760.745,1809.61 759.322,1807.91 758.629,1806.2C757.855,1804.29 757.995,1801.2 757.866,1798.68C757.467,1790.93 756.323,1771.3 756.234,1759.7C756.157,1749.5 757.146,1736.97 757.335,1729.12C757.468,1723.61 757.386,1716.57 757.371,1712.59C757.361,1710.15 757.836,1706.74 757.242,1705.26C756.776,1704.09 755.052,1703.54 753.811,1703.71C751.147,1704.09 745.377,1706.06 741.257,1707.53C736.584,1709.2 728.736,1711.62 725.775,1713.72C723.917,1715.04 723.752,1717.9 723.487,1720.16C723.149,1723.05 723.798,1727.41 723.75,1731.03C723.564,1744.94 722.587,1786.15 722.375,1803.61C722.244,1814.33 722.323,1825.88 722.475,1835.77C722.614,1844.83 722.728,1857.12 723.284,1862.93C723.541,1865.63 725.465,1868.9 725.806,1870.64C725.984,1871.55 725.915,1872.66 725.333,1873.38C724.365,1874.58 721.812,1876.4 719.995,1877.84C717.548,1879.77 713.687,1882.51 710.655,1885C707.118,1887.9 702.323,1892.21 698.775,1895.26C695.647,1897.95 692.112,1901.15 689.369,1903.31C687.12,1905.08 682.316,1908.19 682.316,1908.19C682.316,1908.19 681.949,1897.55 681.919,1892.23C681.887,1886.51 682.071,1879.98 682.124,1873.85C682.258,1858.57 682.604,1818.09 682.719,1800.56C682.789,1789.91 682.786,1779.27 682.816,1768.63C682.867,1750.36 682.968,1716.84 683.025,1690.94C683.086,1662.62 683.145,1629.42 683.187,1598.66C683.229,1567.32 683.472,1527.44 683.279,1502.89C683.144,1485.7 682.313,1464.83 682.03,1451.35C681.825,1441.58 681.613,1431.81 681.582,1422.03C681.528,1405.28 681.683,1370.23 681.708,1350.86C681.727,1335.84 681.651,1320.82 681.73,1305.8C681.828,1287.02 682.185,1260.7 682.298,1238.15C682.419,1213.95 682.452,1179.41 682.456,1160.61C682.459,1148.86 682.371,1137.11 682.324,1125.36C682.255,1107.66 682.173,1069.79 682.039,1054.45C681.978,1047.42 681.742,1040.39 681.518,1033.36C681.261,1025.29 680.649,1015.13 680.497,1006.01C680.294,993.859 680.349,975.641 680.305,960.456C680.258,944.234 680.071,921.79 680.216,908.673C680.316,899.694 681.101,890.731 681.178,881.752C681.338,863.087 681.14,822.815 681.175,796.68C681.206,772.767 681.525,743.048 681.386,724.942C681.291,712.637 680.441,700.347 680.336,688.042C680.204,672.388 680.562,650.023 680.59,631.014C680.623,608.91 680.684,580.618 680.532,555.421C680.366,527.789 679.64,495.292 679.592,465.225C679.535,429.76 680.028,367.878 680.192,342.63C680.255,332.999 680.574,313.738 680.574,313.738Z" style="fill:white;"/>
        <path d="M866.044,2422.2C866.405,2421.07 866.02,2416.74 866.019,2415.21C866.019,2414.49 866.32,2413.43 866.041,2413.04C865.761,2412.65 864.906,2412.95 864.342,2412.87C863.192,2412.72 860.856,2412.44 859.136,2412.09C852.431,2410.72 835.653,2407.73 824.112,2404.7C810.462,2401.12 792.391,2396.64 777.238,2390.59C761.953,2384.49 746.691,2376.77 732.406,2368.07C717.54,2359.02 699.451,2346.11 688.046,2336.3C678.891,2328.43 671.592,2318.6 663.976,2309.23C656.149,2299.6 647.269,2289.69 641.082,2278.52C634.113,2265.94 626.721,2247.14 622.165,2233.76C618.24,2222.22 615.275,2210 613.745,2198.2C612.234,2186.55 612.316,2173.54 612.983,2162.96C613.583,2153.42 615.59,2144 617.744,2134.69C619.958,2125.13 622.436,2114.93 626.267,2105.56C630.653,2094.84 637.465,2081.57 644.061,2070.36C650.614,2059.22 657.54,2048.19 665.845,2038.29C675.37,2026.93 689.403,2012.74 701.211,2002.22C712.316,1992.33 723.912,1982.77 736.693,1975.16C751.731,1966.21 774.714,1955.4 791.443,1948.51C806.214,1942.42 824.807,1937.37 837.062,1933.82C846.244,1931.15 855.82,1928.85 864.97,1927.2C873.888,1925.6 885.782,1924.86 891.96,1923.96C895.357,1923.47 899.982,1922.57 902.032,1921.8C903.071,1921.41 903.845,1920.36 904.263,1919.33C904.734,1918.17 904.998,1916.35 904.856,1914.85C904.711,1913.33 904.229,1911.17 903.393,1910.18C902.583,1909.22 901.077,1909.15 899.844,1908.9C898.525,1908.64 896.938,1908.57 895.481,1908.6C892.875,1908.66 886.962,1909 884.21,1909.23C882.451,1909.38 878.968,1909.99 878.968,1909.99C878.968,1909.99 881.763,1907.97 883.228,1907.07C884.941,1906.01 887.241,1904.65 889.245,1903.64C891.198,1902.65 893.636,1902.01 895.25,1900.97C896.682,1900.06 898.113,1898.25 898.927,1897.43C899.354,1897.01 900.141,1896.34 900.136,1896.08C900.13,1895.82 899.314,1895.86 898.894,1895.86C898.285,1895.86 897.259,1895.88 896.478,1896.09C895.276,1896.42 893.335,1897.42 891.683,1897.82C883.573,1899.76 860.584,1904.29 847.819,1907.74C836.733,1910.74 825.905,1914.64 815.095,1918.51C801.901,1923.24 783.359,1928.49 768.659,1936.1C749.802,1945.86 719.268,1965.16 701.951,1977.06C688.751,1986.12 675.798,1996.86 664.754,2007.45C654.143,2017.63 644.182,2029.07 635.689,2040.64C627.336,2052.03 619.889,2064.79 613.797,2076.91C607.914,2088.62 602.575,2101.41 599.138,2113.38C595.841,2124.86 594.3,2137.87 593.172,2148.7C592.148,2158.55 591.866,2168.49 592.373,2178.38C592.916,2188.97 593.859,2201.39 596.434,2212.25C598.994,2223.05 603.411,2233.35 607.822,2243.54C612.537,2254.42 617.896,2266.9 624.725,2277.56C631.727,2288.5 641.771,2300.18 649.835,2309.16C657.012,2317.16 664.925,2324.5 673.11,2331.46C682.397,2339.35 694.351,2348.7 705.554,2356.53C716.818,2364.39 728.522,2372.1 740.695,2378.67C752.868,2385.24 766.807,2390.81 778.595,2395.94C789.444,2400.65 800.911,2405.7 811.424,2409.42C821.326,2412.91 834.022,2416.25 841.675,2418.22C846.824,2419.54 853.645,2420.58 857.341,2421.21C859.497,2421.58 862.403,2421.84 863.854,2422.01C864.582,2422.09 865.821,2422.9 866.044,2422.2Z" style="fill:white;"/>
    </g>
</svg>
