<?xml version="1.0" encoding="UTF-8" standalone="no"?>
<!DOCTYPE svg PUBLIC "-//W3C//DTD SVG 1.1//EN" "http://www.w3.org/Graphics/SVG/1.1/DTD/svg11.dtd">
<svg width="100%" height="100%" viewBox="0 0 10000 10000" version="1.1" xmlns="http://www.w3.org/2000/svg" xmlns:xlink="http://www.w3.org/1999/xlink" xml:space="preserve" xmlns:serif="http://www.serif.com/" style="fill-rule:evenodd;clip-rule:evenodd;stroke-linecap:round;stroke-linejoin:round;stroke-miterlimit:1.5;">
    <g id="Edge.Cuts">
        <path d="M5483.57,0L4516.43,0L4357.14,798.901C4048.87,846.072 3746.74,927.03 3456.18,1040.31L2930.51,448.386C2636.35,582.133 2355.84,744.081 2092.93,931.958L2342.72,1683.17C2099.34,1878.16 1878.16,2099.34 1683.17,2342.72L931.958,2092.93C744.081,2355.84 582.133,2636.35 448.386,2930.51L1040.31,3456.18C927.03,3746.74 846.072,4048.87 798.901,4357.14L0,4516.43L0,5483.57L798.901,5642.86C846.072,5951.13 927.03,6253.27 1040.31,6543.82L448.386,7069.49C582.133,7363.65 744.081,7644.16 931.958,7907.07L1683.17,7657.28C1878.16,7900.66 2099.34,8121.84 2342.72,8316.83L2092.93,9068.04C2355.84,9255.92 2636.35,9417.87 2930.51,9551.61L3456.18,8959.69C3746.74,9072.97 4048.87,9153.93 4357.14,9201.1L4516.43,10000L5483.57,10000L5642.86,9201.1C5951.13,9153.93 6253.27,9072.97 6543.82,8959.69L7069.49,9551.61C7363.65,9417.87 7644.16,9255.92 7907.07,9068.04L7657.28,8316.83C7900.66,8121.84 8121.84,7900.66 8316.83,7657.28L9068.04,7907.07C9255.92,7644.16 9417.87,7363.65 9551.61,7069.49L8959.69,6543.82C9072.97,6253.27 9153.93,5951.13 9201.1,5642.86L10000,5483.57L10000,4516.43L9201.1,4357.14C9153.93,4048.87 9072.97,3746.74 8959.69,3456.18L9551.61,2930.51C9417.87,2636.35 9255.92,2355.84 9068.04,2092.93L8316.83,2342.72C8121.84,2099.34 7900.66,1878.16 7657.28,1683.17L7907.07,931.958C7644.16,744.081 7363.65,582.133 7069.49,448.386L6543.82,1040.31C6253.27,927.03 5951.13,846.072 5642.86,798.901L5483.57,0ZM7983.04,6522.13C7662.2,7149.16 7149.3,7662.09 6522.13,7983.05L6522.13,7636.46C6983.85,7369.15 7369.02,6984 7636.47,6522.13L7983.04,6522.13ZM2363.53,6522.13C2630.98,6984 3016.15,7369.15 3477.87,7636.46L3477.87,7983.05C2850.7,7662.09 2337.8,7149.16 2016.96,6522.13L2363.53,6522.13ZM2016.96,3477.87C2337.8,2850.84 2850.7,2337.91 3477.87,2016.96L3477.87,2363.54C3016.15,2630.85 2630.98,3016 2363.53,3477.87L2016.96,3477.87ZM7636.47,3477.87C7369.02,3016 6983.85,2630.85 6522.13,2363.54L6522.13,2016.96C7149.3,2337.91 7662.2,2850.84 7983.04,3477.87L7636.47,3477.87Z"/>
    </g>
    <g id="F.Cu">
        <path d="M5367.77,153.547L5506.1,826.992C5517.86,884.216 5563.99,928.071 5621.74,936.908C5919.88,982.53 6212.1,1060.83 6493.1,1170.39C6547.53,1191.61 6609.42,1176.7 6648.21,1133.02L7104.73,618.964C7326.05,725.289 7538.99,848.23 7741.72,986.731C7741.72,986.734 7524.8,1639.12 7524.8,1639.12C7506.37,1694.55 7524.4,1755.6 7569.99,1792.13C7805.38,1980.71 8019.29,2194.62 8207.87,2430.01C8244.4,2475.6 8305.45,2493.63 8360.88,2475.2L9013.27,2258.28C9151.77,2461.01 9274.71,2673.95 9381.03,2895.27C9381.03,2895.27 8866.98,3351.79 8866.98,3351.79C8823.3,3390.58 8808.39,3452.47 8829.61,3506.9C8939.17,3787.91 9017.47,4080.12 9063.09,4378.26C9071.93,4436.01 9115.78,4482.15 9173.01,4493.9L9846.45,4632.23C9865.03,4877.06 9865.03,5122.94 9846.45,5367.77C9846.45,5367.77 9173.01,5506.1 9173.01,5506.1C9115.78,5517.86 9071.93,5563.99 9063.09,5621.74C9017.47,5919.88 8939.17,6212.1 8829.61,6493.1C8808.39,6547.53 8823.3,6609.42 8866.98,6648.21L9381.04,7104.73C9274.71,7326.05 9151.77,7538.99 9013.27,7741.72C9013.27,7741.72 8360.88,7524.8 8360.88,7524.8C8305.45,7506.37 8244.4,7524.4 8207.87,7569.99C8019.29,7805.38 7805.38,8019.29 7569.99,8207.87C7524.4,8244.4 7506.37,8305.45 7524.8,8360.88L7741.72,9013.27C7538.99,9151.77 7326.05,9274.71 7104.73,9381.03C7104.73,9381.03 6648.21,8866.98 6648.21,8866.98C6609.42,8823.3 6547.53,8808.39 6493.1,8829.61C6212.1,8939.17 5919.88,9017.47 5621.74,9063.09C5563.99,9071.93 5517.86,9115.78 5506.1,9173.01L5367.77,9846.45C5122.94,9865.03 4877.06,9865.03 4632.23,9846.45C4632.23,9846.45 4493.9,9173.01 4493.9,9173.01C4482.15,9115.78 4436.01,9071.93 4378.26,9063.09C4080.12,9017.47 3787.91,8939.17 3506.9,8829.61C3452.47,8808.39 3390.58,8823.3 3351.79,8866.98L2895.27,9381.04C2673.95,9274.71 2461.01,9151.77 2258.28,9013.27C2258.28,9013.27 2475.2,8360.88 2475.2,8360.88C2493.63,8305.45 2475.6,8244.4 2430.01,8207.87C2194.62,8019.29 1980.71,7805.38 1792.13,7569.99C1755.6,7524.4 1694.55,7506.37 1639.12,7524.8L986.733,7741.72C848.23,7538.99 725.289,7326.05 618.966,7104.73C618.965,7104.73 1133.02,6648.21 1133.02,6648.21C1176.7,6609.42 1191.61,6547.53 1170.39,6493.1C1060.83,6212.1 982.53,5919.88 936.908,5621.74C928.071,5563.99 884.216,5517.86 826.992,5506.1L153.547,5367.77C134.969,5122.94 134.969,4877.06 153.547,4632.23C153.548,4632.23 826.992,4493.9 826.992,4493.9C884.216,4482.15 928.071,4436.01 936.908,4378.26C982.53,4080.12 1060.83,3787.91 1170.39,3506.9C1191.61,3452.47 1176.7,3390.58 1133.02,3351.79L618.964,2895.27C725.289,2673.95 848.23,2461.01 986.731,2258.28C986.734,2258.28 1639.12,2475.2 1639.12,2475.2C1694.55,2493.63 1755.6,2475.6 1792.13,2430.01C1980.71,2194.62 2194.62,1980.71 2430.01,1792.13C2475.6,1755.6 2493.63,1694.55 2475.2,1639.12L2258.28,986.733C2461.01,848.23 2673.95,725.289 2895.27,618.966C2895.27,618.965 3351.79,1133.02 3351.79,1133.02C3390.58,1176.7 3452.47,1191.61 3506.9,1170.39C3787.91,1060.83 4080.12,982.53 4378.26,936.908C4436.01,928.071 4482.15,884.216 4493.9,826.992L4632.23,153.548C4877.06,134.969 5122.94,134.969 5367.77,153.547L5367.77,153.547ZM2484.35,6452.17C2459.39,6409.06 2413.35,6382.52 2363.53,6382.52L2016.96,6382.52C1968.34,6382.52 1923.23,6407.81 1897.86,6449.29C1872.49,6490.76 1870.53,6542.45 1892.67,6585.73C2226.84,7238.81 2761.04,7773.04 3414.26,8107.33C3457.55,8129.48 3509.23,8127.52 3550.71,8102.15C3592.19,8076.78 3617.48,8031.66 3617.48,7983.05L3617.48,7636.46C3617.48,7586.64 3590.93,7540.6 3547.82,7515.64C3107.18,7260.52 2739.59,6892.95 2484.35,6452.17ZM8107.33,6585.73C8129.47,6542.45 8127.51,6490.76 8102.14,6449.29C8076.78,6407.81 8031.66,6382.52 7983.04,6382.52L7636.47,6382.52C7586.65,6382.52 7540.61,6409.06 7515.65,6452.17C7260.41,6892.95 6892.82,7260.52 6452.18,7515.64C6409.07,7540.6 6382.52,7586.64 6382.52,7636.46L6382.52,7983.05C6382.52,8031.66 6407.81,8076.78 6449.29,8102.15C6490.77,8127.52 6542.45,8129.48 6585.74,8107.33C7238.96,7773.04 7773.16,7238.81 8107.33,6585.73ZM7515.65,3547.83C7540.61,3590.94 7586.65,3617.48 7636.47,3617.48L7983.04,3617.48C8031.66,3617.48 8076.78,3592.19 8102.14,3550.71C8127.51,3509.24 8129.47,3457.55 8107.33,3414.27C7773.16,2761.19 7238.96,2226.96 6585.74,1892.67C6542.45,1870.52 6490.77,1872.48 6449.29,1897.85C6407.81,1923.22 6382.52,1968.34 6382.52,2016.96L6382.52,2363.54C6382.52,2413.36 6409.07,2459.4 6452.18,2484.37C6892.82,2739.48 7260.41,3107.05 7515.65,3547.83ZM1892.67,3414.27C1870.53,3457.55 1872.49,3509.24 1897.86,3550.71C1923.23,3592.19 1968.34,3617.48 2016.96,3617.48L2363.53,3617.48C2413.35,3617.48 2459.39,3590.94 2484.35,3547.83C2739.59,3107.05 3107.18,2739.48 3547.82,2484.37C3590.93,2459.4 3617.48,2413.36 3617.48,2363.54L3617.48,2016.96C3617.48,1968.34 3592.19,1923.22 3550.71,1897.85C3509.23,1872.48 3457.55,1870.52 3414.26,1892.67C2761.04,2226.96 2226.84,2761.19 1892.67,3414.27Z" style="fill:rgb(255,0,0);"/>
    </g>
    <g id="F.Mask">
        <path d="M5000,2564.59C6344.14,2564.59 7435.41,3655.86 7435.41,5000C7435.41,6344.14 6344.14,7435.41 5000,7435.41C3655.86,7435.41 2564.59,6344.14 2564.59,5000C2564.59,3655.86 3655.86,2564.59 5000,2564.59ZM5000,3477.87C5840.09,3477.87 6522.13,4159.91 6522.13,5000C6522.13,5840.09 5840.09,6522.13 5000,6522.13C4159.91,6522.13 3477.87,5840.09 3477.87,5000C3477.87,4159.91 4159.91,3477.87 5000,3477.87Z" style="fill:rgb(255,0,229);stroke:rgb(255,0,214);stroke-width:10px;"/>
    </g>
    <g id="F.SilkS">
        <path d="M5000,1042.45C7184.23,1042.45 8957.55,2815.77 8957.55,5000C8957.55,7184.23 7184.23,8957.55 5000,8957.55C2815.77,8957.55 1042.45,7184.23 1042.45,5000C1042.45,2815.77 2815.77,1042.45 5000,1042.45ZM5000,1346.88C7016.21,1346.88 8653.12,2983.79 8653.12,5000C8653.12,7016.21 7016.21,8653.12 5000,8653.12C2983.79,8653.12 1346.88,7016.21 1346.88,5000C1346.88,2983.79 2983.79,1346.88 5000,1346.88Z" style="fill:white;"/>
    </g>
    <g id="Drills">
        <circle cx="5000" cy="5000" r="304.427"/>
    </g>
</svg>
